<svg width="23" height="18" viewBox="0 0 23 18" fill="none" xmlns="http://www.w3.org/2000/svg">
<path d="M18.9276 1.4921C17.5025 0.801473 15.9743 0.292648 14.3766 0.00122249C14.3475 -0.00440192 14.3184 0.00965379 14.3034 0.0377659C14.1069 0.406965 13.8892 0.888616 13.7367 1.26719C12.0182 0.99545 10.3085 0.99545 8.62517 1.26719C8.47269 0.880201 8.24709 0.406965 8.04967 0.0377659C8.03468 0.0105918 8.00561 -0.00346397 7.97651 0.00122249C6.3796 0.291716 4.85143 0.800541 3.42548 1.4921C3.41313 1.49772 3.40255 1.5071 3.39553 1.51928C0.496914 6.09311 -0.297138 10.5545 0.0923975 14.9606C0.09416 14.9822 0.105617 15.0028 0.12148 15.0159C2.03391 16.4993 3.88642 17.3998 5.70452 17.9967C5.73362 18.0061 5.76445 17.9949 5.78297 17.9695C6.21304 17.3492 6.59642 16.6952 6.92512 16.0073C6.94452 15.967 6.926 15.9192 6.88635 15.9033C6.27826 15.6597 5.69923 15.3626 5.14225 15.0253C5.09819 14.9981 5.09467 14.9316 5.1352 14.8997C5.25241 14.8069 5.36965 14.7104 5.48157 14.613C5.50182 14.5952 5.53003 14.5914 5.55384 14.6026C9.21298 16.3672 13.1744 16.3672 16.7904 14.6026C16.8142 14.5905 16.8424 14.5942 16.8636 14.612C16.9755 14.7095 17.0927 14.8069 17.2108 14.8997C17.2513 14.9316 17.2487 14.9981 17.2046 15.0253C16.6477 15.3692 16.0686 15.6597 15.4597 15.9024C15.42 15.9183 15.4024 15.967 15.4218 16.0073C15.7575 16.6942 16.1409 17.3483 16.563 17.9686C16.5807 17.9949 16.6124 18.0061 16.6415 17.9967C18.4684 17.3998 20.3209 16.4993 22.2333 15.0159C22.2501 15.0028 22.2607 14.9831 22.2624 14.9616C22.7286 9.86763 21.4816 5.4428 18.9567 1.52021C18.9505 1.5071 18.9399 1.49772 18.9276 1.4921ZM7.47155 12.2778C6.3699 12.2778 5.46217 11.2095 5.46217 9.89763C5.46217 8.58572 6.3523 7.51748 7.47155 7.51748C8.5996 7.51748 9.49854 8.5951 9.48091 9.89763C9.48091 11.2095 8.59078 12.2778 7.47155 12.2778ZM14.9009 12.2778C13.7993 12.2778 12.8916 11.2095 12.8916 9.89763C12.8916 8.58572 13.7817 7.51748 14.9009 7.51748C16.029 7.51748 16.9279 8.5951 16.9103 9.89763C16.9103 11.2095 16.029 12.2778 14.9009 12.2778Z" fill="white"/>
</svg>
