<svg width="24" height="24" viewBox="0 0 24 24" fill="none" xmlns="http://www.w3.org/2000/svg">
<path fill-rule="evenodd" clip-rule="evenodd" d="M24 12C24 18.6274 18.6274 24 12 24C5.37258 24 0 18.6274 0 12C0 5.37258 5.37258 0 12 0C18.6274 0 24 5.37258 24 12ZM12.43 8.85892C11.2628 9.34438 8.93012 10.3492 5.43187 11.8733C4.86381 12.0992 4.56624 12.3202 4.53915 12.5363C4.49337 12.9015 4.95069 13.0453 5.57345 13.2411C5.65816 13.2677 5.74594 13.2953 5.83592 13.3246C6.44862 13.5238 7.27281 13.7568 7.70127 13.766C8.08992 13.7744 8.52371 13.6142 9.00262 13.2853C12.2711 11.079 13.9584 9.9638 14.0643 9.93975C14.139 9.92279 14.2426 9.90147 14.3127 9.96383C14.3829 10.0262 14.376 10.1443 14.3686 10.176C14.3233 10.3691 12.5281 12.0381 11.5991 12.9018C11.3095 13.171 11.1041 13.362 11.0621 13.4056C10.968 13.5033 10.8721 13.5958 10.78 13.6846C10.2107 14.2333 9.78389 14.6448 10.8036 15.3168C11.2936 15.6397 11.6857 15.9067 12.0769 16.1731C12.5041 16.4641 12.9303 16.7542 13.4816 17.1157C13.6221 17.2077 13.7562 17.3034 13.8869 17.3965C14.3841 17.751 14.8307 18.0694 15.3826 18.0186C15.7032 17.9891 16.0344 17.6876 16.2027 16.7883C16.6002 14.6631 17.3816 10.0584 17.5622 8.16096C17.578 7.99472 17.5581 7.78196 17.5421 7.68856C17.5261 7.59516 17.4927 7.46209 17.3713 7.36359C17.2276 7.24692 17.0056 7.22232 16.9063 7.22407C16.455 7.23202 15.7625 7.4728 12.43 8.85892Z" fill="white"/>
</svg>
