<svg width="60" height="60" viewBox="0 0 60 60" fill="none" xmlns="http://www.w3.org/2000/svg">
<path fill-rule="evenodd" clip-rule="evenodd" d="M3.2002 14.1976C3.2002 13.2035 4.00608 12.3976 5.0002 12.3976H14.0002C14.9943 12.3976 15.8002 13.2035 15.8002 14.1976V20.1976C15.8002 21.1918 14.9943 21.9976 14.0002 21.9976H5.0002C4.00608 21.9976 3.2002 21.1918 3.2002 20.1976V14.1976ZM5.0002 13.9976C4.88974 13.9976 4.8002 14.0872 4.8002 14.1976V20.1976C4.8002 20.3081 4.88974 20.3976 5.0002 20.3976H14.0002C14.1107 20.3976 14.2002 20.3081 14.2002 20.1976V14.1976C14.2002 14.0872 14.1107 13.9976 14.0002 13.9976H5.0002Z" fill="#FF3F3F"/>
<path fill-rule="evenodd" clip-rule="evenodd" d="M19.2002 14.1976C19.2002 13.2035 20.0061 12.3976 21.0002 12.3976H30.0002C30.9943 12.3976 31.8002 13.2035 31.8002 14.1976V20.1976C31.8002 21.1918 30.9943 21.9976 30.0002 21.9976H21.0002C20.0061 21.9976 19.2002 21.1918 19.2002 20.1976V14.1976ZM21.0002 13.9976C20.8897 13.9976 20.8002 14.0872 20.8002 14.1976V20.1976C20.8002 20.3081 20.8897 20.3976 21.0002 20.3976H30.0002C30.1107 20.3976 30.2002 20.3081 30.2002 20.1976V14.1976C30.2002 14.0872 30.1107 13.9976 30.0002 13.9976H21.0002Z" fill="#FF3F3F"/>
<path fill-rule="evenodd" clip-rule="evenodd" d="M5.00098 45.8V44.2H26V45.8H5.00098Z" fill="white"/>
<path fill-rule="evenodd" clip-rule="evenodd" d="M5.00098 33.8065V32.2065H57.015V33.8065H5.00098Z" fill="white"/>
<path fill-rule="evenodd" clip-rule="evenodd" d="M57.7516 9.27459L50.7518 28.4288L47.8585 21.4195L42.6445 39.4554L40.0516 34.563L38.2334 41.9685L36.6793 41.9674L33.7557 29.9816L31.0885 27.5416L25.6099 39.027L22.6183 34.0097L18.0201 43.374L15.0651 38.9686L11.1397 47.5778H7.51672L4.73969 54.3052L3.26074 53.6948L6.44622 45.9778H10.1107L14.7979 35.698L17.8053 40.1815L22.4821 30.657L25.453 35.6396L30.5745 24.9029L35.1948 29.1295L37.459 38.4122L39.4989 30.1036L42.2059 35.2113L47.5919 16.5804L50.6611 24.0156L56.2488 8.7254L57.7516 9.27459Z" fill="url(#paint0_linear_530_706)"/>
<defs>
<linearGradient id="paint0_linear_530_706" x1="57.0002" y1="54" x2="17.4309" y2="54" gradientUnits="userSpaceOnUse">
<stop stop-color="#FF3F3F"/>
<stop offset="1" stop-color="#FF3F3F" stop-opacity="0.21"/>
</linearGradient>
</defs>
</svg>
