<svg width="60" height="60" viewBox="0 0 60 60" fill="none" xmlns="http://www.w3.org/2000/svg">
<path opacity="0.3" fill-rule="evenodd" clip-rule="evenodd" d="M29.81 10.8022C17.4353 10.8022 7.40371 20.8338 7.40371 33.2085C7.40371 45.5831 17.4353 55.6147 29.81 55.6147C42.1846 55.6147 52.2162 45.5831 52.2162 33.2085C52.2162 27.8473 50.3344 22.9279 47.1945 19.0715L48.4352 18.0613C51.799 22.1926 53.8162 27.466 53.8162 33.2085C53.8162 46.4668 43.0683 57.2147 29.81 57.2147C16.5517 57.2147 5.80371 46.4668 5.80371 33.2085C5.80371 19.9502 16.5517 9.20221 29.81 9.20221V10.8022Z" fill="url(#paint0_linear_530_717)"/>
<path fill-rule="evenodd" clip-rule="evenodd" d="M23.4411 24.9062C23.1404 24.9062 22.8521 25.0256 22.6395 25.2382C22.4269 25.4508 22.3075 25.7391 22.3075 26.0398V39.5768C22.3075 39.8774 22.4269 40.1658 22.6395 40.3784C22.8521 40.591 23.1404 40.7104 23.4411 40.7104H36.9781C37.2787 40.7104 37.5671 40.591 37.7797 40.3784C37.9923 40.1658 38.1117 39.8774 38.1117 39.5768V29.272L33.7458 24.9062H23.4411ZM21.5078 24.1065C22.0206 23.5938 22.716 23.3057 23.4411 23.3057H34.0773C34.2895 23.3057 34.4931 23.39 34.6431 23.5401L39.4778 28.3747C39.6279 28.5248 39.7122 28.7283 39.7122 28.9406V39.5768C39.7122 40.3019 39.4241 40.9973 38.9114 41.5101C38.3986 42.0228 37.7032 42.3109 36.9781 42.3109H23.4411C22.716 42.3109 22.0206 42.0228 21.5078 41.5101C20.9951 40.9973 20.707 40.3019 20.707 39.5768V26.0398C20.707 25.3147 20.9951 24.6193 21.5078 24.1065Z" fill="white"/>
<path fill-rule="evenodd" clip-rule="evenodd" d="M25 33.8002C25 33.3583 25.3583 33 25.8002 33H35.4695C35.9114 33 36.2697 33.3583 36.2697 33.8002V41.5356C36.2697 41.9776 35.9114 42.3359 35.4695 42.3359C35.0275 42.3359 34.6693 41.9776 34.6693 41.5356V34.6004H26.6004V41.5356C26.6004 41.9776 26.2422 42.3359 25.8002 42.3359C25.3583 42.3359 25 41.9776 25 41.5356V33.8002Z" fill="white"/>
<path fill-rule="evenodd" clip-rule="evenodd" d="M25.3754 23.3057C25.8174 23.3057 26.1756 23.664 26.1756 24.1059V28.1404H33.1108C33.5528 28.1404 33.911 28.4986 33.911 28.9406C33.911 29.3825 33.5528 29.7408 33.1108 29.7408H25.3754C24.9335 29.7408 24.5752 29.3825 24.5752 28.9406V24.1059C24.5752 23.664 24.9335 23.3057 25.3754 23.3057Z" fill="white"/>
<path fill-rule="evenodd" clip-rule="evenodd" d="M37.4771 13.2451C37.9523 12.7698 38.5968 12.5029 39.2689 12.5029H42.7365C43.4085 12.5029 44.0531 12.7698 44.5283 13.2451C45.0035 13.7203 45.2705 14.3648 45.2705 15.0369V15.9038C45.2705 16.3457 44.9122 16.704 44.4703 16.704C44.0283 16.704 43.6701 16.3457 43.6701 15.9038V15.0369C43.6701 14.7893 43.5717 14.5518 43.3966 14.3767C43.2215 14.2017 42.9841 14.1033 42.7365 14.1033H39.2689C39.0213 14.1033 38.7838 14.2017 38.6087 14.3767C38.4337 14.5518 38.3353 14.7893 38.3353 15.0369V15.9038C38.3353 16.3457 37.977 16.704 37.5351 16.704C37.0931 16.704 36.7349 16.3457 36.7349 15.9038V15.0369C36.7349 14.3648 37.0018 13.7203 37.4771 13.2451Z" fill="white"/>
<path fill-rule="evenodd" clip-rule="evenodd" d="M41.0028 7.90188C40.4872 7.90188 40.0692 8.31987 40.0692 8.83547C40.0692 9.35108 40.4872 9.76906 41.0028 9.76906C41.5184 9.76906 41.9364 9.35108 41.9364 8.83547C41.9364 8.31987 41.5184 7.90188 41.0028 7.90188ZM38.4688 8.83547C38.4688 7.43597 39.6033 6.30145 41.0028 6.30145C42.4023 6.30145 43.5368 7.43597 43.5368 8.83547C43.5368 10.235 42.4023 11.3695 41.0028 11.3695C39.6033 11.3695 38.4688 10.235 38.4688 8.83547Z" fill="white"/>
<path fill-rule="evenodd" clip-rule="evenodd" d="M41.0027 20.4054C45.6434 20.4054 49.4054 16.6434 49.4054 12.0027C49.4054 7.36202 45.6434 3.6 41.0027 3.6C36.362 3.6 32.6 7.36202 32.6 12.0027C32.6 16.6434 36.362 20.4054 41.0027 20.4054ZM41.0027 22.0054C46.527 22.0054 51.0054 17.527 51.0054 12.0027C51.0054 6.47836 46.527 2 41.0027 2C35.4784 2 31 6.47836 31 12.0027C31 17.527 35.4784 22.0054 41.0027 22.0054Z" fill="white"/>
<path fill-rule="evenodd" clip-rule="evenodd" d="M30.0718 10.6C26.5101 10.6 23.144 11.4281 20.1536 12.9014C12.7151 16.5663 7.6 24.2224 7.6 33.0718C7.6 45.4826 17.661 55.5436 30.0718 55.5436C33.7559 55.5436 37.2308 54.6576 40.2972 53.0879L41.0263 54.5121C37.7395 56.1947 34.0153 57.1436 30.0718 57.1436C16.7773 57.1436 6 46.3663 6 33.0718C6 23.5899 11.4823 15.39 19.4464 11.4662C22.652 9.88682 26.2595 9 30.0718 9V10.6Z" fill="#FF3F3F"/>
<defs>
<linearGradient id="paint0_linear_530_717" x1="45.4142" y1="36.0092" x2="22.2079" y2="13.2031" gradientUnits="userSpaceOnUse">
<stop stop-color="#6D6D6D"/>
<stop offset="1" stop-color="#212121"/>
</linearGradient>
</defs>
</svg>
