<svg width="179" height="36" viewBox="0 0 179 36" fill="none" xmlns="http://www.w3.org/2000/svg">
    <path d="M53.7177 29.61V6.68997H58.8669V15.8266H68.5372V6.68997H73.6864V29.61H68.5372V20.3478H58.8669V29.61H53.7177ZM83.4448 30.0495C81.5819 30.0495 80.0748 29.5681 78.9236 28.6053C77.7933 27.6424 77.2281 26.2819 77.2281 24.5236C77.2281 23.2677 77.5526 22.2421 78.2014 21.4467C78.8503 20.6304 79.7608 20.0338 80.933 19.657C82.1052 19.2593 83.4553 19.0605 84.9833 19.0605H88.0916V18.9977C88.0916 17.2395 87.2125 16.3603 85.4542 16.3603C84.9937 16.3603 84.3867 16.3813 83.6332 16.4231C82.8796 16.4441 82.0947 16.4755 81.2784 16.5173C80.483 16.5382 79.7713 16.5696 79.1434 16.6115V12.3729C79.876 12.3101 80.776 12.2578 81.8435 12.2159C82.911 12.1531 83.8948 12.1217 84.7949 12.1217C87.4322 12.1217 89.4417 12.6868 90.8232 13.8172C92.2256 14.9265 92.9268 16.6743 92.9268 19.0605V29.61H88.9393V26.3761C88.5626 27.5692 87.9137 28.4797 86.9927 29.1076C86.0717 29.7356 84.8891 30.0495 83.4448 30.0495ZM84.9519 26.5644C85.7682 26.5644 86.4799 26.3342 87.0869 25.8737C87.6939 25.4132 88.0288 24.5341 88.0916 23.2363V21.8549H84.9519C84.0727 21.8549 83.3925 22.0746 82.911 22.5142C82.4505 22.9538 82.2203 23.5294 82.2203 24.241C82.2203 24.9318 82.4505 25.4969 82.911 25.9365C83.3925 26.3551 84.0727 26.5644 84.9519 26.5644ZM103.72 30.1437C101.271 30.1437 99.3554 29.6414 97.9739 28.6367C96.5924 27.632 95.8598 26.2191 95.7761 24.398H100.234C100.297 24.9423 100.622 25.4341 101.208 25.8737C101.794 26.2923 102.663 26.5017 103.814 26.5017C104.672 26.5017 105.394 26.3551 105.98 26.0621C106.566 25.7691 106.859 25.3295 106.859 24.7434C106.859 24.241 106.64 23.8434 106.2 23.5503C105.76 23.2363 104.975 23.0166 103.845 22.891L102.495 22.7654C100.423 22.5351 98.8635 21.9595 97.8169 21.0385C96.7913 20.1175 96.2784 18.914 96.2784 17.4278C96.2784 16.2138 96.5819 15.1986 97.189 14.3823C97.8169 13.566 98.6646 12.9485 99.7321 12.5299C100.8 12.1112 102.024 11.9019 103.406 11.9019C105.624 11.9019 107.404 12.3938 108.743 13.3776C110.104 14.3404 110.826 15.7429 110.91 17.5848H106.451C106.367 17.0406 106.064 16.5696 105.541 16.1719C105.038 15.7742 104.306 15.5754 103.343 15.5754C102.568 15.5754 101.951 15.7219 101.49 16.015C101.03 16.308 100.8 16.7057 100.8 17.2081C100.8 17.6895 100.998 18.0558 101.396 18.307C101.794 18.5581 102.443 18.7361 103.343 18.8407L104.693 18.9663C106.786 19.1966 108.419 19.7931 109.591 20.756C110.784 21.6979 111.381 22.9538 111.381 24.5236C111.381 26.2609 110.69 27.632 109.308 28.6367C107.927 29.6414 106.064 30.1437 103.72 30.1437ZM114.635 29.61V6.68997H119.659V15.23C120.58 12.9904 122.275 11.8705 124.745 11.8705H124.965C126.87 11.8705 128.325 12.5508 129.329 13.9113C130.334 15.251 130.836 17.2185 130.836 19.814V29.61H125.813V19.5001C125.813 18.5581 125.53 17.8046 124.965 17.2395C124.421 16.6534 123.699 16.3603 122.799 16.3603C121.857 16.3603 121.093 16.6743 120.507 17.3022C119.941 17.9093 119.659 18.7047 119.659 19.6884V29.61H114.635ZM145.007 30.2065C142.851 30.2065 141.02 29.8088 139.513 29.0134C138.027 28.1971 136.896 27.0459 136.122 25.5597C135.347 24.0736 134.96 22.3153 134.96 20.285V6.68997H140.109V20.4734C140.109 21.9804 140.528 23.184 141.365 24.0841C142.223 24.9632 143.437 25.4027 145.007 25.4027C146.577 25.4027 147.781 24.9632 148.618 24.0841C149.476 23.2049 149.905 22.0014 149.905 20.4734V6.68997H155.054V20.285C155.054 22.3153 154.667 24.0736 153.893 25.5597C153.118 27.0459 151.988 28.1971 150.502 29.0134C149.016 29.8088 147.184 30.2065 145.007 30.2065ZM159.493 35.8894V12.4043H163.48V16.7685C163.983 15.1777 164.82 13.9741 165.992 13.1578C167.185 12.3205 168.577 11.9019 170.168 11.9019C171.759 11.9019 173.14 12.2891 174.312 13.0636C175.506 13.8172 176.427 14.8533 177.075 16.1719C177.745 17.4906 178.08 18.9768 178.08 20.6304V21.3525C178.08 23.0061 177.766 24.5027 177.138 25.8423C176.51 27.1819 175.61 28.239 174.438 29.0134C173.266 29.7879 171.843 30.1751 170.168 30.1751C168.996 30.1751 167.918 29.9554 166.934 29.5158C165.95 29.0762 165.144 28.4064 164.517 27.5064V35.8894H159.493ZM168.755 25.9679C170.032 25.9679 171.058 25.5074 171.832 24.5864C172.627 23.6654 173.025 22.4619 173.025 20.9757C173.025 19.5105 172.627 18.3279 171.832 17.4278C171.058 16.5278 170.032 16.0778 168.755 16.0778C167.981 16.0778 167.259 16.2557 166.589 16.6115C165.94 16.9673 165.406 17.4802 164.987 18.15C164.59 18.8198 164.391 19.6152 164.391 20.5362V21.6979C164.391 22.5979 164.6 23.3724 165.019 24.0213C165.458 24.6492 166.013 25.1306 166.683 25.4655C167.353 25.8004 168.043 25.9679 168.755 25.9679Z" fill="white"/>
    <path d="M8.03791 28.1099L7.83152 26.8395L4.64018 27.6443L3.80768 24.3432L7.42075 23.432L6.41033 15.0598L3.14231 15.884L0.670522 12.9964L5.99956 11.6524L4.7408 1.48706L8.03791 0.655558L9.29666 10.8209L14.9707 9.39L14.6996 7.38593L17.7827 4.86382L18.2678 8.5585L21.4903 7.34993L23.8926 10.651L18.6786 11.9659L19.689 20.3381L23.4792 19.3823L25.3905 22.4112L20.0998 23.7455L21.3586 33.9109L18.0615 34.7424L16.8027 24.577L11.1286 26.008L11.4429 29.3779L8.03791 28.1099ZM10.7178 22.6006L16.3919 21.1696L15.3815 12.7974L9.70743 14.2283L10.7178 22.6006Z" fill="white"/>
</svg>
