<svg width="161" height="42" viewBox="0 0 161 42" fill="none" xmlns="http://www.w3.org/2000/svg">
<path d="M41.0377 28.5215V11.9166H44.7681V18.5358H51.774V11.9166H55.5044V28.5215H51.774V21.8113H44.7681V28.5215H41.0377ZM62.5741 28.8399C61.2245 28.8399 60.1327 28.4912 59.2986 27.7936C58.4798 27.096 58.0703 26.1104 58.0703 24.8366C58.0703 23.9267 58.3054 23.1837 58.7755 22.6074C59.2456 22.016 59.9052 21.5838 60.7544 21.3109C61.6036 21.0227 62.5817 20.8787 63.6887 20.8787H65.9406V20.8332C65.9406 19.5594 65.3037 18.9225 64.0299 18.9225C63.6963 18.9225 63.2565 18.9377 62.7106 18.968C62.1647 18.9831 61.596 19.0059 61.0046 19.0362C60.4284 19.0514 59.9128 19.0741 59.4579 19.1045V16.0337C59.9886 15.9882 60.6407 15.9503 61.414 15.92C62.1874 15.8745 62.9001 15.8517 63.5522 15.8517C65.4629 15.8517 66.9187 16.2612 67.9195 17.08C68.9355 17.8837 69.4435 19.15 69.4435 20.8787V28.5215H66.5547V26.1786C66.2818 27.043 65.8117 27.7026 65.1445 28.1575C64.4772 28.6125 63.6204 28.8399 62.5741 28.8399ZM63.6659 26.3151C64.2573 26.3151 64.7729 26.1483 65.2127 25.8147C65.6525 25.481 65.8951 24.8441 65.9406 23.904V22.9031H63.6659C63.029 22.9031 62.5362 23.0623 62.1874 23.3808C61.8538 23.6992 61.687 24.1163 61.687 24.6318C61.687 25.1323 61.8538 25.5417 62.1874 25.8602C62.5362 26.1634 63.029 26.3151 63.6659 26.3151ZM77.2626 28.9082C75.4884 28.9082 74.1009 28.5442 73.1 27.8163C72.0992 27.0885 71.5684 26.0649 71.5078 24.7456H74.7378C74.7833 25.1398 75.0183 25.4962 75.4429 25.8147C75.8675 26.1179 76.4968 26.2696 77.3309 26.2696C77.9526 26.2696 78.4758 26.1634 78.9004 25.9511C79.325 25.7388 79.5373 25.4204 79.5373 24.9958C79.5373 24.6318 79.378 24.3437 79.0596 24.1314C78.7411 23.904 78.1725 23.7447 77.3536 23.6537L76.3755 23.5628C74.8742 23.396 73.7445 22.9789 72.9863 22.3117C72.2432 21.6445 71.8717 20.7725 71.8717 19.6959C71.8717 18.8163 72.0916 18.0809 72.5314 17.4895C72.9863 16.8981 73.6004 16.4507 74.3738 16.1474C75.1472 15.8441 76.0343 15.6925 77.0352 15.6925C78.6426 15.6925 79.9315 16.0489 80.902 16.7616C81.8877 17.4591 82.4109 18.4751 82.4715 19.8096H79.2416C79.1809 19.4153 78.961 19.0741 78.5819 18.786C78.218 18.4979 77.6872 18.3538 76.9897 18.3538C76.4286 18.3538 75.9812 18.46 75.6476 18.6723C75.314 18.8846 75.1472 19.1727 75.1472 19.5366C75.1472 19.8854 75.2913 20.1508 75.5794 20.3328C75.8675 20.5147 76.3376 20.6436 76.9897 20.7195L77.9678 20.8104C79.4842 20.9773 80.667 21.4094 81.5162 22.107C82.3806 22.7894 82.8127 23.6992 82.8127 24.8366C82.8127 26.0952 82.3123 27.0885 81.3115 27.8163C80.3106 28.5442 78.961 28.9082 77.2626 28.9082ZM85.1707 28.5215V11.9166H88.8102V18.1036C89.4774 16.481 90.7057 15.6698 92.4951 15.6698H92.6543C94.0343 15.6698 95.0882 16.1626 95.8161 17.1483C96.5439 18.1188 96.9079 19.5442 96.9079 21.4246V28.5215H93.2685V21.1971C93.2685 20.5147 93.0637 19.9688 92.6543 19.5594C92.26 19.1348 91.7369 18.9225 91.0848 18.9225C90.4024 18.9225 89.8489 19.15 89.4243 19.6049C89.0149 20.0446 88.8102 20.6209 88.8102 21.3336V28.5215H85.1707ZM107.174 28.9537C105.612 28.9537 104.286 28.6655 103.194 28.0893C102.117 27.4979 101.298 26.6639 100.737 25.5872C100.176 24.5105 99.8955 23.2367 99.8955 21.7658V11.9166H103.626V21.9023C103.626 22.9941 103.929 23.866 104.536 24.5181C105.157 25.155 106.037 25.4735 107.174 25.4735C108.312 25.4735 109.184 25.155 109.79 24.5181C110.412 23.8812 110.723 23.0093 110.723 21.9023V11.9166H114.453V21.7658C114.453 23.2367 114.173 24.5105 113.612 25.5872C113.05 26.6639 112.232 27.4979 111.155 28.0893C110.078 28.6655 108.751 28.9537 107.174 28.9537ZM117.669 33.0708V16.0564H120.558V19.2182C120.922 18.0657 121.528 17.1938 122.377 16.6024C123.242 15.9958 124.25 15.6925 125.403 15.6925C126.555 15.6925 127.556 15.973 128.405 16.5341C129.269 17.08 129.937 17.8307 130.407 18.786C130.892 19.7414 131.135 20.818 131.135 22.016V22.5392C131.135 23.7372 130.907 24.8214 130.452 25.7919C129.997 26.7624 129.345 27.5282 128.496 28.0893C127.647 28.6504 126.616 28.9309 125.403 28.9309C124.553 28.9309 123.772 28.7717 123.06 28.4532C122.347 28.1348 121.763 27.6495 121.308 26.9975V33.0708H117.669ZM124.379 25.8829C125.304 25.8829 126.047 25.5493 126.608 24.8821C127.184 24.2148 127.472 23.3429 127.472 22.2662C127.472 21.2047 127.184 20.3479 126.608 19.6959C126.047 19.0438 125.304 18.7178 124.379 18.7178C123.818 18.7178 123.295 18.8467 122.809 19.1045C122.339 19.3623 121.953 19.7338 121.649 20.219C121.361 20.7043 121.217 21.2805 121.217 21.9478V22.7894C121.217 23.4414 121.369 24.0025 121.672 24.4726C121.991 24.9275 122.392 25.2763 122.878 25.519C123.363 25.7616 123.863 25.8829 124.379 25.8829Z" fill="white"/>
<circle cx="11.9419" cy="20.457" r="11.9419" fill="#21242B"/>
<path d="M7.9441 27.8934L7.79458 26.973L5.48254 27.5561L4.87943 25.1646L7.49699 24.5044L6.76497 18.439L4.39738 19.0361L2.60664 16.9441L6.46738 15.9705L5.55544 8.60592L7.9441 8.00353L8.85603 15.3681L12.9667 14.3314L12.7703 12.8795L15.0039 11.0523L15.3554 13.729L17.69 12.8534L19.4304 15.2449L15.653 16.1975L16.385 22.263L19.1309 21.5705L20.5156 23.7649L16.6826 24.7315L17.5945 32.0961L15.2059 32.6985L14.2939 25.3339L10.1832 26.3706L10.4109 28.812L7.9441 27.8934ZM9.88564 23.902L13.9963 22.8654L13.2643 16.7999L9.15362 17.8366L9.88564 23.902Z" fill="white"/>
</svg>
