<svg width="168" height="38" viewBox="0 0 168 38" fill="none" xmlns="http://www.w3.org/2000/svg">
    <path d="M61.8498 29.1484V7.17838H67.4477V29.1484H61.8498ZM47.8853 29.1484V7.17838H53.4832V29.1484H47.8853ZM52.5201 20.5109V15.6353H62.8129V20.5109H52.5201ZM81.7087 29.1484V24.2729H80.8058V19.0663C80.8058 18.3039 80.6252 17.7421 80.2641 17.3809C79.923 16.9997 79.3512 16.8091 78.5486 16.8091C78.1674 16.8091 77.6056 16.8191 76.8633 16.8392C76.1209 16.8593 75.3384 16.8893 74.5158 16.9295C73.6931 16.9696 72.9407 17.0097 72.2586 17.0499V12.4753C72.7401 12.4351 73.3119 12.395 73.974 12.3549C74.6362 12.3148 75.3183 12.2847 76.0206 12.2646C76.7429 12.2445 77.405 12.2345 78.0069 12.2345C79.7123 12.2345 81.1569 12.4853 82.3407 12.9869C83.5446 13.4885 84.4575 14.2409 85.0795 15.2441C85.7215 16.2473 86.0425 17.5214 86.0425 19.0663V29.1484H81.7087ZM76.4419 29.5698C75.2782 29.5698 74.2449 29.3591 73.342 28.9378C72.4391 28.5164 71.7269 27.9145 71.2052 27.132C70.7036 26.3294 70.4528 25.3764 70.4528 24.2729C70.4528 23.0289 70.7839 22.0257 71.446 21.2633C72.1081 20.4808 73.021 19.909 74.1847 19.5478C75.3484 19.1867 76.6827 19.0061 78.1875 19.0061H81.4077V21.8351H78.1875C77.4451 21.8351 76.8733 22.0257 76.472 22.4069C76.0707 22.7681 75.8701 23.2597 75.8701 23.8816C75.8701 24.4836 76.0707 24.9751 76.472 25.3563C76.8733 25.7175 77.4451 25.8981 78.1875 25.8981C78.669 25.8981 79.0904 25.8178 79.4515 25.6573C79.8327 25.4767 80.1437 25.1758 80.3845 24.7544C80.6252 24.3331 80.7657 23.7512 80.8058 23.0089L82.0699 24.2127C81.9695 25.3563 81.6886 26.3294 81.2272 27.132C80.7858 27.9145 80.1638 28.5164 79.3612 28.9378C78.5787 29.3591 77.6056 29.5698 76.4419 29.5698ZM96.2935 29.6902C93.8858 29.6902 91.9898 29.1986 90.6054 28.2155C89.2209 27.2123 88.4786 25.8078 88.3783 24.002H93.1936C93.2739 24.5036 93.5849 24.935 94.1266 25.2962C94.6683 25.6573 95.4307 25.8379 96.4139 25.8379C97.1161 25.8379 97.718 25.7376 98.2196 25.5369C98.7413 25.3162 99.0021 24.9651 99.0021 24.4836C99.0021 24.0622 98.8015 23.7211 98.4002 23.4603C97.9989 23.1794 97.2666 22.9888 96.2032 22.8885L95.0596 22.7681C92.9328 22.5474 91.3678 21.9655 90.3646 21.0225C89.3614 20.0795 88.8598 18.8957 88.8598 17.4712C88.8598 16.2473 89.1607 15.2441 89.7627 14.4616C90.3646 13.659 91.1972 13.0571 92.2606 12.6558C93.324 12.2546 94.5379 12.0539 95.9022 12.0539C98.1293 12.0539 99.9251 12.5455 101.289 13.5286C102.654 14.4917 103.376 15.8861 103.456 17.712H98.641C98.5607 17.2104 98.2899 16.789 97.8284 16.4479C97.3669 16.0868 96.7048 15.9062 95.8421 15.9062C95.2201 15.9062 94.7084 16.0166 94.3072 16.2373C93.9259 16.458 93.7353 16.769 93.7353 17.1702C93.7353 17.5916 93.9159 17.9026 94.2771 18.1032C94.6583 18.3039 95.2602 18.4543 96.0828 18.5547L97.2265 18.675C99.3532 18.8957 100.988 19.4876 102.132 20.4507C103.296 21.3937 103.878 22.6377 103.878 24.1826C103.878 25.3262 103.567 26.3094 102.945 27.132C102.343 27.9546 101.47 28.5866 100.326 29.0281C99.2028 29.4695 97.8585 29.6902 96.2935 29.6902ZM106.602 29.1484V7.17838H112.08V19.6983H111.357C111.357 18.0129 111.568 16.5984 111.989 15.4548C112.411 14.3111 113.023 13.4484 113.825 12.8665C114.648 12.2847 115.661 11.9937 116.865 11.9937H117.106C118.911 11.9937 120.286 12.6458 121.229 13.95C122.192 15.2541 122.673 17.1702 122.673 19.6983V29.1484H117.196V19.4876C117.196 18.7252 116.965 18.1032 116.504 17.6217C116.042 17.1201 115.43 16.8693 114.668 16.8693C113.905 16.8693 113.283 17.1201 112.802 17.6217C112.32 18.1032 112.08 18.7453 112.08 19.5478V29.1484H106.602ZM135.983 29.7504C133.877 29.7504 132.091 29.3591 130.626 28.5766C129.182 27.7941 128.078 26.6906 127.316 25.2661C126.553 23.8215 126.172 22.116 126.172 20.1497V7.17838H131.77V20.2701C131.77 21.1329 131.93 21.8853 132.251 22.5273C132.592 23.1694 133.074 23.6609 133.696 24.002C134.318 24.3431 135.08 24.5137 135.983 24.5137C136.886 24.5137 137.649 24.3431 138.271 24.002C138.893 23.6609 139.364 23.1794 139.685 22.5574C140.006 21.9154 140.167 21.1529 140.167 20.2701V7.17838H145.764V20.1497C145.764 22.116 145.383 23.8215 144.621 25.2661C143.878 26.6906 142.775 27.7941 141.31 28.5766C139.866 29.3591 138.09 29.7504 135.983 29.7504ZM149.571 35.1676V12.5355H153.905V19.6983H153.423C153.484 18.0731 153.805 16.6887 154.386 15.5451C154.988 14.4014 155.801 13.5387 156.824 12.9568C157.848 12.3549 159.021 12.0539 160.345 12.0539C161.489 12.0539 162.522 12.2646 163.445 12.6859C164.368 13.0872 165.161 13.6691 165.823 14.4315C166.485 15.1739 166.987 16.0567 167.328 17.08C167.689 18.1032 167.869 19.2268 167.869 20.4507V21.173C167.869 22.3969 167.709 23.5305 167.388 24.5739C167.067 25.5971 166.585 26.5 165.943 27.2825C165.301 28.0449 164.509 28.6368 163.566 29.0581C162.643 29.4795 161.579 29.6902 160.376 29.6902C159.091 29.6902 157.958 29.4394 156.975 28.9378C155.992 28.4161 155.209 27.6436 154.627 26.6204C154.065 25.577 153.764 24.2729 153.724 22.7079L155.049 24.3331V35.1676H149.571ZM158.72 25.1758C159.443 25.1758 160.075 24.9952 160.616 24.634C161.178 24.2528 161.609 23.7312 161.91 23.0691C162.231 22.4069 162.392 21.6545 162.392 20.8119C162.392 19.9491 162.231 19.2067 161.91 18.5848C161.609 17.9427 161.188 17.4511 160.646 17.1101C160.105 16.7489 159.463 16.5683 158.72 16.5683C158.058 16.5683 157.436 16.7188 156.854 17.0198C156.293 17.3207 155.831 17.7621 155.47 18.344C155.109 18.9258 154.928 19.6281 154.928 20.4507V21.474C154.928 22.2565 155.119 22.9286 155.5 23.4904C155.881 24.0321 156.363 24.4535 156.945 24.7544C157.526 25.0353 158.118 25.1758 158.72 25.1758Z" fill="white"/>
    <path d="M9.06194 30.0851L3.81539 28.6792L13.4761 5.2948C13.6645 4.83864 14.0912 4.52529 14.5828 4.48199L19.2845 4.06786C19.4819 4.05047 19.6277 4.24822 19.5527 4.43162L9.06194 30.0851Z" fill="white"/>
    <path d="M21.2985 31.9058C21.1278 32.3209 20.7582 32.6211 20.3169 32.7032L15.278 33.6404C15.0721 33.6787 14.9054 33.474 14.9846 33.2802L25.7418 6.95138L30.9875 8.35698L21.2985 31.9058Z" fill="white"/>
    <path d="M18.7558 27.1621L20.1616 21.9155L28.0619 24.0324L25.8606 29.0658L18.7558 27.1621Z" fill="white"/>
    <path d="M6.31901 12.9926L8.44983 7.94115L14.4341 9.54462L13.0285 14.7904L6.31901 12.9926Z" fill="white"/>
    <path d="M14.3687 15.2674L16.5167 10.2205L28.1169 13.2112L25.7864 18.2091L14.3687 15.2674Z" fill="white"/>
    <path d="M27.8933 20.0722L30.5374 13.8596L31.912 14.2279L31.6437 21.0772L27.8933 20.0722Z" fill="#FF3F3F"/>
    <path d="M9.72896 24.7431L12.3162 19.8131L20.5151 22.01L18.4028 27.0673L9.72896 24.7431Z" fill="white"/>
    <path d="M3.27745 23.0142L3.64697 16.1516L7.05486 17.0648L4.4398 23.3257L3.27745 23.0142Z" fill="#FF3F3F"/>
    <path d="M12.3308 14.6355L3.82221 28.675L9.86772 13.9626L12.3308 14.6355Z" fill="url(#paint0_linear_292:1865)"/>
    <path d="M22.5018 22.5196L30.9068 8.41574L24.9033 23.1838L22.5018 22.5196Z" fill="url(#paint1_linear_292:1865)"/>
    <defs>
        <linearGradient id="paint0_linear_292:1865" x1="10.3441" y1="15.1364" x2="6.81365" y2="22.319" gradientUnits="userSpaceOnUse">
            <stop stop-color="#D8D8D8"/>
            <stop offset="1" stop-color="white" stop-opacity="0"/>
        </linearGradient>
        <linearGradient id="paint1_linear_292:1865" x1="24.6604" y1="22.959" x2="28.6561" y2="12.2336" gradientUnits="userSpaceOnUse">
            <stop stop-color="#DFDFDF"/>
            <stop offset="1" stop-color="white" stop-opacity="0"/>
        </linearGradient>
    </defs>
</svg>
