<svg width="65" height="65" viewBox="0 0 65 65" fill="none" xmlns="http://www.w3.org/2000/svg">
<circle cx="32.5" cy="32.5" r="32.5" fill="#DD392E" fill-opacity="0.1"/>
<path d="M47.3333 31.8714V33.1748C47.3316 36.2297 46.3424 39.2022 44.5132 41.649C42.6841 44.0958 40.113 45.8858 37.1834 46.752C34.2539 47.6181 31.1228 47.5141 28.2572 46.4554C25.3915 45.3967 22.9449 43.4401 21.2822 40.8773C19.6195 38.3145 18.8297 35.2829 19.0307 32.2346C19.2317 29.1862 20.4127 26.2846 22.3976 23.9623C24.3824 21.64 27.0648 20.0216 30.0446 19.3483C33.0244 18.6751 36.142 18.9831 38.9325 20.2264" stroke="#DD392E" stroke-width="2" stroke-linecap="round" stroke-linejoin="round"/>
<path d="M47.3327 21.8413L33.166 36.0221L28.916 31.7721" stroke="#DD392E" stroke-width="2" stroke-linecap="round" stroke-linejoin="round"/>
</svg>
