<svg width="15" height="15" viewBox="0 0 15 15" fill="none" xmlns="http://www.w3.org/2000/svg">
<path d="M8.10571 3.25195C8.10571 2.83774 7.76993 2.50195 7.35571 2.50195C6.9415 2.50195 6.60571 2.83774 6.60571 3.25195H8.10571ZM6.60571 4.58529C6.60571 4.9995 6.9415 5.33529 7.35571 5.33529C7.76993 5.33529 8.10571 4.9995 8.10571 4.58529H6.60571ZM8.10571 9.91862C8.10571 9.50441 7.76993 9.16862 7.35571 9.16862C6.9415 9.16862 6.60571 9.50441 6.60571 9.91862H8.10571ZM6.60571 11.252C6.60571 11.6662 6.9415 12.002 7.35571 12.002C7.76993 12.002 8.10571 11.6662 8.10571 11.252H6.60571ZM9.35571 5.33529C9.76993 5.33529 10.1057 4.9995 10.1057 4.58529C10.1057 4.17107 9.76993 3.83529 9.35571 3.83529V5.33529ZM6.68905 4.58529V3.83529V4.58529ZM8.02238 9.91862V9.16862V9.91862ZM5.35571 9.16862C4.9415 9.16862 4.60571 9.50441 4.60571 9.91862C4.60571 10.3328 4.9415 10.6686 5.35571 10.6686V9.16862ZM8.02238 7.25195V6.50195V7.25195ZM6.68905 7.25195V6.50195V7.25195ZM6.1788 4.68678L5.89179 3.99387L6.1788 4.68678ZM5.45721 5.40838L4.7643 5.12136L5.45721 5.40838ZM5.45721 6.42886L4.7643 6.71588L5.45721 6.42886ZM5.74624 6.86143L6.27657 6.3311L5.74624 6.86143ZM6.1788 7.15046L5.89179 7.84337L6.1788 7.15046ZM8.53262 9.81713L8.81964 10.51L8.53262 9.81713ZM9.25422 9.09553L9.94713 9.38254L9.25422 9.09553ZM9.25422 8.07504L9.94713 7.78803L9.25422 8.07504ZM8.96519 7.64248L8.43486 8.17281L8.96519 7.64248ZM8.53262 7.35345L8.81964 6.66054L8.53262 7.35345ZM12.6057 7.25195C12.6057 10.1514 10.2552 12.502 7.35571 12.502V14.002C11.0836 14.002 14.1057 10.9799 14.1057 7.25195H12.6057ZM7.35571 12.502C4.45622 12.502 2.10571 10.1514 2.10571 7.25195H0.605713C0.605713 10.9799 3.62779 14.002 7.35571 14.002V12.502ZM2.10571 7.25195C2.10571 4.35246 4.45622 2.00195 7.35571 2.00195V0.501953C3.62779 0.501953 0.605713 3.52403 0.605713 7.25195H2.10571ZM7.35571 2.00195C10.2552 2.00195 12.6057 4.35246 12.6057 7.25195H14.1057C14.1057 3.52403 11.0836 0.501953 7.35571 0.501953V2.00195ZM6.60571 3.25195V4.58529H8.10571V3.25195H6.60571ZM6.60571 9.91862V11.252H8.10571V9.91862H6.60571ZM9.35571 3.83529H6.68905V5.33529H9.35571V3.83529ZM8.02238 9.16862H5.35571V10.6686H8.02238V9.16862ZM8.02238 6.50195H6.68905V8.00195H8.02238V6.50195ZM6.68905 3.83529C6.41546 3.83529 6.14455 3.88917 5.89179 3.99387L6.46581 5.37969C6.53659 5.35038 6.61244 5.33529 6.68905 5.33529V3.83529ZM5.89179 3.99387C5.63903 4.09857 5.40936 4.25203 5.21591 4.44548L6.27657 5.50614C6.33074 5.45197 6.39504 5.40901 6.46581 5.37969L5.89179 3.99387ZM5.21591 4.44548C5.02245 4.63894 4.86899 4.8686 4.7643 5.12136L6.15012 5.69539C6.17943 5.62461 6.2224 5.56031 6.27657 5.50614L5.21591 4.44548ZM4.7643 5.12136C4.6596 5.37412 4.60571 5.64503 4.60571 5.91862H6.10571C6.10571 5.84202 6.1208 5.76616 6.15012 5.69539L4.7643 5.12136ZM4.60571 5.91862C4.60571 6.19221 4.6596 6.46312 4.7643 6.71588L6.15012 6.14185C6.1208 6.07108 6.10571 5.99522 6.10571 5.91862H4.60571ZM4.7643 6.71588C4.86899 6.96864 5.02245 7.1983 5.21591 7.39176L6.27657 6.3311C6.2224 6.27693 6.17943 6.21262 6.15012 6.14185L4.7643 6.71588ZM5.21591 7.39176C5.40936 7.58521 5.63903 7.73867 5.89179 7.84337L6.46581 6.45755C6.39504 6.42823 6.33074 6.38527 6.27657 6.3311L5.21591 7.39176ZM5.89179 7.84337C6.14455 7.94807 6.41546 8.00195 6.68905 8.00195V6.50195C6.61244 6.50195 6.53659 6.48687 6.46581 6.45755L5.89179 7.84337ZM8.02238 10.6686C8.29597 10.6686 8.56687 10.6147 8.81964 10.51L8.24561 9.12422C8.17484 9.15353 8.09898 9.16862 8.02238 9.16862V10.6686ZM8.81964 10.51C9.0724 10.4053 9.30206 10.2519 9.49552 10.0584L8.43486 8.99777C8.38069 9.05193 8.31638 9.0949 8.24561 9.12422L8.81964 10.51ZM9.49552 10.0584C9.68897 9.86497 9.84243 9.63531 9.94713 9.38254L8.56131 8.80852C8.53199 8.87929 8.48903 8.9436 8.43486 8.99777L9.49552 10.0584ZM9.94713 9.38254C10.0518 9.12978 10.1057 8.85887 10.1057 8.58529H8.60571C8.60571 8.66189 8.59062 8.73775 8.56131 8.80852L9.94713 9.38254ZM10.1057 8.58529C10.1057 8.3117 10.0518 8.04079 9.94713 7.78803L8.56131 8.36205C8.59062 8.43283 8.60571 8.50868 8.60571 8.58529H10.1057ZM9.94713 7.78803C9.84243 7.53527 9.68897 7.3056 9.49552 7.11215L8.43486 8.17281C8.48903 8.22697 8.53199 8.29128 8.56131 8.36205L9.94713 7.78803ZM9.49552 7.11215C9.30206 6.91869 9.0724 6.76523 8.81964 6.66054L8.24561 8.04636C8.31639 8.07567 8.38069 8.11864 8.43486 8.17281L9.49552 7.11215ZM8.81964 6.66054C8.56687 6.55584 8.29597 6.50195 8.02238 6.50195V8.00195C8.09898 8.00195 8.17484 8.01704 8.24561 8.04636L8.81964 6.66054Z" fill="#FF3F3F"/>
</svg>
