{
    "asset" : {
        "generator" : "Khronos glTF Blender I/O v1.6.16",
        "version" : "2.0"
    },
    "scene" : 0,
    "scenes" : [
        {
            "name" : "Scene",
            "nodes" : [
                0
            ]
        }
    ],
    "nodes" : [
        {
            "mesh" : 0,
            "name" : "cartridge",
            "rotation" : [
                0.7071066498756409,
                0,
                0,
                0.70710688829422
            ]
        }
    ],
    "meshes" : [
        {
            "name" : "cartridge",
            "primitives" : [
                {
                    "attributes" : {
                        "POSITION" : 0,
                        "NORMAL" : 1,
                        "TEXCOORD_0" : 2
                    },
                    "indices" : 3
                }
            ]
        }
    ],
    "accessors" : [
        {
            "bufferView" : 0,
            "componentType" : 5126,
            "count" : 3799,
            "max" : [
                4.543537139892578,
                0.3660341799259186,
                2.7743606567382812
            ],
            "min" : [
                -6.389266014099121,
                -0.5742075443267822,
                -4.215676307678223
            ],
            "type" : "VEC3"
        },
        {
            "bufferView" : 1,
            "componentType" : 5126,
            "count" : 3799,
            "type" : "VEC3"
        },
        {
            "bufferView" : 2,
            "componentType" : 5126,
            "count" : 3799,
            "type" : "VEC2"
        },
        {
            "bufferView" : 3,
            "componentType" : 5123,
            "count" : 6864,
            "type" : "SCALAR"
        }
    ],
    "bufferViews" : [
        {
            "buffer" : 0,
            "byteLength" : 45588,
            "byteOffset" : 0
        },
        {
            "buffer" : 0,
            "byteLength" : 45588,
            "byteOffset" : 45588
        },
        {
            "buffer" : 0,
            "byteLength" : 30392,
            "byteOffset" : 91176
        },
        {
            "buffer" : 0,
            "byteLength" : 13728,
            "byteOffset" : 121568
        }
    ],
    "buffers" : [
        {
            "byteLength" : 135296,
            "uri" : "data:application/octet-stream;base64,"
        }
    ]
}
