<svg width="60" height="60" viewBox="0 0 60 60" fill="none" xmlns="http://www.w3.org/2000/svg">
<path fill-rule="evenodd" clip-rule="evenodd" d="M9.3999 15.9H51.5999V39.1H9.3999V15.9ZM10.9999 37.5V17.5H49.9999V37.5H10.9999Z" fill="#FF3F3F"/>
<path fill-rule="evenodd" clip-rule="evenodd" d="M3.5 11H57.5V23.2526L53.5608 26.1844V31.4677L57.5 34.0047V50H10.2491V46.4751L3.5 38.8074V11ZM4.5 12V38.43L11.2491 46.0976V49H56.5V34.5501L52.5608 32.0131V25.6821L56.5 22.7503V12H4.5Z" fill="white"/>
<path fill-rule="evenodd" clip-rule="evenodd" d="M55.5 33.5V23.5H56.5V33.5H55.5Z" fill="white"/>
<path d="M27.7985 31.1037L26.0455 30.6339L29.2328 22.9187C29.3207 22.7059 29.5198 22.5597 29.7492 22.5395L31.157 22.4155C31.249 22.4074 31.317 22.4997 31.2821 22.5852L27.7985 31.1037Z" fill="white"/>
<path d="M31.9233 31.6239C31.8436 31.8175 31.6712 31.9576 31.4653 31.9959L29.9385 32.2799C29.8424 32.2977 29.7647 32.2022 29.8016 32.1118L33.3716 23.3739L35.1244 23.8436L31.9233 31.6239Z" fill="white"/>
<path d="M31.0376 30.1271L31.5073 28.374L34.147 29.0813L33.4116 30.7632L31.0376 30.1271Z" fill="white"/>
<path d="M26.8819 25.3925L27.5939 23.7046L29.5934 24.2404L29.1238 25.9932L26.8819 25.3925Z" fill="white"/>
<path d="M29.5718 26.1524L30.2895 24.4661L34.1655 25.4654L33.3868 27.1354L29.5718 26.1524Z" fill="white"/>
<path d="M34.0908 27.758L34.9743 25.6822L35.4336 25.8052L35.344 28.0938L34.0908 27.758Z" fill="#FF3F3F"/>
<path d="M28.0215 29.3189L28.886 27.6716L31.6255 28.4057L30.9197 30.0955L28.0215 29.3189Z" fill="white"/>
<path d="M25.8658 28.741L25.9893 26.448L27.1279 26.7531L26.2542 28.8451L25.8658 28.741Z" fill="#FF3F3F"/>
</svg>
