<svg width="27" height="27" viewBox="0 0 27 27" fill="none" xmlns="http://www.w3.org/2000/svg">
    <circle cx="13.5" cy="13.5" r="13.5" fill="#5499F5"/>
    <path d="M8.48025 10.0958C11.2526 7.22521 15.7474 7.22521 18.5198 10.0958L18.8534 10.4413C18.992 10.5849 18.992 10.8176 18.8534 10.9611L17.7121 12.1429C17.6427 12.2147 17.5304 12.2147 17.4611 12.1429L17.0019 11.6675C15.0679 9.66489 11.9322 9.66489 9.9981 11.6675L9.50639 12.1767C9.43708 12.2484 9.32471 12.2484 9.2554 12.1767L8.11404 10.9948C7.97542 10.8513 7.97542 10.6186 8.11404 10.4751L8.48025 10.0958ZM20.8802 12.54L21.896 13.5919C22.0347 13.7354 22.0347 13.9681 21.896 14.1116L17.3156 18.8545C17.177 18.998 16.9523 18.998 16.8137 18.8545C16.8137 18.8545 16.8137 18.8545 16.8137 18.8545L13.5628 15.4884C13.5281 15.4525 13.4719 15.4525 13.4373 15.4884C13.4373 15.4884 13.4373 15.4884 13.4373 15.4884L10.1865 18.8545C10.0478 18.998 9.82311 18.9981 9.68449 18.8545C9.68449 18.8545 9.68449 18.8545 9.68449 18.8545L5.10396 14.1116C4.96535 13.968 4.96535 13.7353 5.10396 13.5918L6.11978 12.54C6.2584 12.3964 6.48314 12.3964 6.62176 12.54L9.87269 15.9062C9.90735 15.942 9.96353 15.942 9.99819 15.9062C9.99819 15.9062 9.99819 15.9062 9.99819 15.9062L13.249 12.54C13.3876 12.3964 13.6123 12.3964 13.7509 12.5399C13.7509 12.5399 13.7509 12.5399 13.7509 12.5399L17.0019 15.9062C17.0365 15.942 17.0927 15.942 17.1274 15.9062L20.3782 12.54C20.5169 12.3965 20.7416 12.3965 20.8802 12.54Z" fill="white"/>
</svg>
