<svg width="27" height="27" viewBox="0 0 27 27" fill="none" xmlns="http://www.w3.org/2000/svg">
    <circle cx="13.5" cy="13.5" r="13.5" fill="#F9E7D4"/>
    <path d="M21.1107 16.769L20.0841 20.1067L18.0688 19.5768L21.1107 16.769Z" fill="#E4761B" stroke="#E4761B" stroke-width="0.441235"/>
    <path d="M18.0688 19.5768L20.0126 17.0158L21.1107 16.769L18.0688 19.5768Z" fill="#E4761B" stroke="#E4761B" stroke-width="0.441235"/>
    <path d="M19.6006 14.2528L21.111 16.7692L20.0129 17.016L19.6006 14.2528ZM19.6006 14.2528L20.5725 13.6055L21.111 16.7692L19.6006 14.2528Z" fill="#F6851B" stroke="#F6851B" stroke-width="0.441235"/>
    <path d="M18.3638 12.3509L21.1574 11.2505L21.0186 11.8533L18.3638 12.3509ZM20.9302 12.5775L18.3638 12.3509L21.0186 11.8533L20.9302 12.5775Z" fill="#763D16" stroke="#763D16" stroke-width="0.441235"/>
    <path d="M20.9302 12.5775L20.5726 13.6051L18.3638 12.3509L20.9302 12.5775ZM21.4898 11.5054L21.0185 11.8533L21.1574 11.2505L21.4898 11.5054ZM20.9302 12.5775L21.0185 11.8533L21.393 12.1527L20.9302 12.5775Z" fill="#763D16" stroke="#763D16" stroke-width="0.441235"/>
    <path d="M15.9023 18.7637L16.6007 18.9781L18.0691 19.5769L15.9023 18.7637Z" fill="#E2761B" stroke="#E2761B" stroke-width="0.441235"/>
    <path d="M20.5726 13.6052L20.9302 12.5776L21.2374 12.8042L20.5726 13.6052ZM20.5726 13.6052L17.6738 12.6869L18.3638 12.3511L20.5726 13.6052Z" fill="#763D16" stroke="#763D16" stroke-width="0.441235"/>
    <path d="M19.0538 9.19971L18.3638 12.3513L17.6738 12.6871L19.0538 9.19971Z" fill="#763D16" stroke="#763D16" stroke-width="0.441235"/>
    <path d="M21.1574 11.2509L18.3638 12.3513L19.0538 9.19971L21.1574 11.2509Z" fill="#763D16" stroke="#763D16" stroke-width="0.441235"/>
    <path d="M19.0535 9.19914L21.9691 8.87549L21.1571 11.2503L19.0535 9.19914Z" fill="#763D16" stroke="#763D16" stroke-width="0.441235"/>
    <path d="M20.5726 13.6049L19.6007 14.2522L17.6738 12.6865L20.5726 13.6049Z" fill="#F6851B" stroke="#F6851B" stroke-width="0.441235"/>
    <path d="M21.8429 6.60645L21.9691 8.87608L19.0535 9.19974L21.8429 6.60645Z" fill="#763D16" stroke="#763D16" stroke-width="0.441235"/>
    <path d="M21.843 6.60645L16.0159 10.6805L15.9402 7.91725L21.843 6.60645Z" fill="#E2761B" stroke="#E2761B" stroke-width="0.441235"/>
    <path d="M11.6067 7.58496L15.9402 7.91671L16.0159 10.6799L11.6067 7.58496Z" fill="#F6851B" stroke="#F6851B" stroke-width="0.441235"/>
    <path d="M17.6738 12.6871L16.0161 10.6804L19.0537 9.19971L17.6738 12.6871Z" fill="#763D16" stroke="#763D16" stroke-width="0.441235"/>
    <path d="M17.6731 12.6865L19.6 14.2522L16.8948 14.5395L17.6731 12.6865Z" fill="#E4761B" stroke="#E4761B" stroke-width="0.441235"/>
    <path d="M16.8954 14.5398L16.0161 10.6802L17.6738 12.6868L16.8954 14.5398Z" fill="#E4761B" stroke="#E4761B" stroke-width="0.441235"/>
    <path d="M19.0537 9.19974L16.0161 10.6805L21.8432 6.60645L19.0537 9.19974Z" fill="#763D16" stroke="#763D16" stroke-width="0.441235"/>
    <path d="M11.6444 19.5119L13.0202 20.8914L11.1479 19.2529L11.6444 19.5119Z" fill="#C0AD9E" stroke="#C0AD9E" stroke-width="0.441235"/>
    <path d="M18.0688 19.5765L18.721 17.1936L20.0126 17.0156L18.0688 19.5765Z" fill="#CD6116" stroke="#CD6116" stroke-width="0.441235"/>
    <path d="M6.06592 12.873L8.44722 10.4658L6.37305 12.5858L6.06592 12.873Z" fill="#E2761B" stroke="#E2761B" stroke-width="0.441235"/>
    <path d="M20.0128 17.0155L18.7212 17.1935L19.6005 14.2523L20.0128 17.0155ZM16.0159 10.6799L13.6977 10.6071L11.6067 7.58496L16.0159 10.6799Z" fill="#F6851B" stroke="#F6851B" stroke-width="0.441235"/>
    <path d="M19.6003 14.2524L18.7209 17.1937L18.6494 15.7574L19.6003 14.2524Z" fill="#E4751F" stroke="#E4751F" stroke-width="0.441235"/>
    <path d="M16.8948 14.5397L19.6 14.2524L18.6492 15.7574L16.8948 14.5397Z" fill="#CD6116" stroke="#CD6116" stroke-width="0.441235"/>
    <path d="M13.6975 10.6074L16.0157 10.6802L16.895 14.5398L13.6975 10.6074Z" fill="#F6851B" stroke="#F6851B" stroke-width="0.441235"/>
    <path d="M13.6978 10.6074L7.44157 5.04053L11.6067 7.58527L13.6978 10.6074ZM11.6025 20.3575L6.16677 21.9758L5.0813 17.9908L11.6025 20.3575Z" fill="#E4761B" stroke="#E4761B" stroke-width="0.441235"/>
    <path d="M6.87329 13.8679L8.92643 12.3184L10.6472 12.7027L6.87329 13.8679Z" fill="#763D16" stroke="#763D16" stroke-width="0.441235"/>
    <path d="M10.6473 12.7028L8.92651 12.3184L9.8479 8.66113L10.6473 12.7028Z" fill="#763D16" stroke="#763D16" stroke-width="0.441235"/>
    <path d="M6.37256 12.5854L8.92636 12.3184L6.87322 13.8679L6.37256 12.5854Z" fill="#763D16" stroke="#763D16" stroke-width="0.441235"/>
    <path d="M18.6492 15.7578L17.589 15.244L16.8948 14.54L18.6492 15.7578Z" fill="#CD6116" stroke="#CD6116" stroke-width="0.441235"/>
    <path d="M6.37305 12.5859L6.19214 11.6675L8.92685 12.3188L6.37305 12.5859Z" fill="#763D16" stroke="#763D16" stroke-width="0.441235"/>
    <path d="M17.3704 16.4007L17.5891 15.2437L18.6494 15.7575L17.3704 16.4007Z" fill="#233447" stroke="#233447" stroke-width="0.441235"/>
    <path d="M18.7209 17.1935L17.3704 16.4006L18.6494 15.7573L18.7209 17.1935Z" fill="#F6851B" stroke="#F6851B" stroke-width="0.441235"/>
    <path d="M8.92669 12.3184L6.19198 11.6671L5.96899 10.8944L8.92669 12.3184ZM9.84808 8.66113L8.92669 12.3184L5.96899 10.8944L9.84808 8.66113ZM9.84808 8.66113L13.6977 10.6071L10.6475 12.7028L9.84808 8.66113Z" fill="#763D16" stroke="#763D16" stroke-width="0.441235"/>
    <path d="M10.6475 12.7031L13.6977 10.6074L15.0567 14.6005L10.6475 12.7031ZM15.0567 14.6005L10.841 14.5156L10.6475 12.7031L15.0567 14.6005Z" fill="#E4761B" stroke="#E4761B" stroke-width="0.441235"/>
    <path d="M6.87329 13.8683L10.6472 12.7031L10.8407 14.5156L6.87329 13.8683ZM16.895 14.5398L15.0564 14.6005L13.6975 10.6074L16.895 14.5398Z" fill="#F6851B" stroke="#F6851B" stroke-width="0.441235"/>
    <path d="M17.589 15.244L17.3702 16.4011L16.8948 14.54L17.589 15.244Z" fill="#CD6116" stroke="#CD6116" stroke-width="0.441235"/>
    <path d="M7.44116 5.04053L13.6973 10.6074L9.84771 8.66142L7.44116 5.04053Z" fill="#763D16" stroke="#763D16" stroke-width="0.441235"/>
    <path d="M5.0813 17.9906L10.3572 17.7803L11.6025 20.3574L5.0813 17.9906Z" fill="#E4761B" stroke="#E4761B" stroke-width="0.441235"/>
    <path d="M11.6025 20.3577L10.3572 17.7806L12.9488 17.6592L11.6025 20.3577Z" fill="#CD6116" stroke="#CD6116" stroke-width="0.441235"/>
    <path d="M17.3707 16.4008L18.7212 17.1937L19.4659 18.8808L17.3707 16.4008ZM10.841 14.5155L5.0813 17.9907L6.87359 13.8682L10.841 14.5155ZM10.3572 17.7803L5.0813 17.9907L10.841 14.5155L10.3572 17.7803ZM16.8953 14.5397L17.2403 15.7454L15.5742 15.8384L16.8953 14.5397ZM15.5742 15.8384L15.0567 14.6004L16.8953 14.5397L15.5742 15.8384Z" fill="#F6851B" stroke="#F6851B" stroke-width="0.441235"/>
    <path d="M13.0204 20.8914L11.6025 20.3574L16.5334 21.1544L13.0204 20.8914Z" fill="#C0AD9E" stroke="#C0AD9E" stroke-width="0.441235"/>
    <path d="M6.87371 13.8679L6.06592 12.8727L6.37305 12.5854L6.87371 13.8679Z" fill="#763D16" stroke="#763D16" stroke-width="0.441235"/>
    <path d="M17.093 20.5638L16.5334 21.1544L11.6025 20.3574L17.093 20.5638Z" fill="#D7C1B3" stroke="#D7C1B3" stroke-width="0.441235"/>
    <path d="M17.3581 19.1156L11.6025 20.3577L12.9489 17.6592L17.3581 19.1156Z" fill="#E4761B" stroke="#E4761B" stroke-width="0.441235"/>
    <path d="M11.6025 20.3573L17.3581 19.1152L17.093 20.5636L11.6025 20.3573Z" fill="#D7C1B3" stroke="#D7C1B3" stroke-width="0.441235"/>
    <path d="M5.96911 10.8943L5.77979 7.7832L9.84819 8.66112L5.96911 10.8943ZM6.37301 12.5854L5.81344 12.0393L6.1921 11.6671L6.37301 12.5854Z" fill="#763D16" stroke="#763D16" stroke-width="0.441235"/>
    <path d="M14.114 15.4016L15.0564 14.6006L14.9218 16.5587L14.114 15.4016Z" fill="#CD6116" stroke="#CD6116" stroke-width="0.441235"/>
    <path d="M15.0569 14.6006L14.1145 15.4016L12.7429 16.0854L15.0569 14.6006Z" fill="#CD6116" stroke="#CD6116" stroke-width="0.441235"/>
    <path d="M19.4656 18.8809L19.2089 18.6988L17.3704 16.4009L19.4656 18.8809Z" fill="#F6851B" stroke="#F6851B" stroke-width="0.441235"/>
    <path d="M12.7425 16.0854L10.8408 14.5156L15.0565 14.6006L12.7425 16.0854Z" fill="#CD6116" stroke="#CD6116" stroke-width="0.441235"/>
    <path d="M14.9221 16.5587L15.0568 14.6006L15.5742 15.8386L14.9221 16.5587Z" fill="#E4751F" stroke="#E4751F" stroke-width="0.441235"/>
    <path d="M5.62842 11.202L5.96921 10.8945L6.19219 11.6673L5.62842 11.202Z" fill="#763D16" stroke="#763D16" stroke-width="0.441235"/>
    <path d="M14.9223 16.5584L12.7429 16.0851L14.1145 15.4014L14.9223 16.5584Z" fill="#233447" stroke="#233447" stroke-width="0.441235"/>
    <path d="M9.84819 8.66142L5.77979 7.78351L7.44165 5.04053L9.84819 8.66142Z" fill="#763D16" stroke="#763D16" stroke-width="0.441235"/>
    <path d="M16.5336 21.1546L16.765 21.7614L13.0205 20.8916L16.5336 21.1546Z" fill="#C0AD9E" stroke="#C0AD9E" stroke-width="0.441235"/>
    <path d="M12.9491 17.6592L12.7429 16.0854L14.9223 16.5588L12.9491 17.6592Z" fill="#F6851B" stroke="#F6851B" stroke-width="0.441235"/>
    <path d="M10.8408 14.5156L12.7425 16.0854L12.9487 17.6591L10.8408 14.5156Z" fill="#E4751F" stroke="#E4751F" stroke-width="0.441235"/>
    <path d="M15.5742 15.8386L17.2402 15.7455L19.2092 18.6989L15.5742 15.8386ZM10.841 14.5156L12.9488 17.6591L10.3572 17.7805L10.841 14.5156Z" fill="#F6851B" stroke="#F6851B" stroke-width="0.441235"/>
    <path d="M15.5742 15.8389L17.6442 18.8691L14.9221 16.559L15.5742 15.8389Z" fill="#E4751F" stroke="#E4751F" stroke-width="0.441235"/>
    <path d="M14.9221 16.5586L17.6442 18.8687L17.3581 19.1155L14.9221 16.5586Z" fill="#F6851B" stroke="#F6851B" stroke-width="0.441235"/>
    <path d="M17.3577 19.1159L12.9485 17.6594L14.9217 16.559L17.3577 19.1159ZM19.2089 18.6992L17.6438 18.8691L15.5738 15.8389L19.2089 18.6992Z" fill="#F6851B" stroke="#F6851B" stroke-width="0.441235"/>
    <path d="M19.6216 20.1226L18.9484 21.4212L16.7648 21.7611L19.6216 20.1226ZM16.7648 21.7611L16.5334 21.1542L17.093 20.5635L16.7648 21.7611Z" fill="#C0AD9E" stroke="#C0AD9E" stroke-width="0.441235"/>
    <path d="M17.0928 20.5635L17.5051 20.4058L16.7646 21.7611L17.0928 20.5635ZM16.7646 21.7611L17.5051 20.4058L19.6214 20.1226L16.7646 21.7611Z" fill="#C0AD9E" stroke="#C0AD9E" stroke-width="0.441235"/>
    <path d="M19.2096 18.6987L19.7271 19.0022L18.1536 19.1842L19.2096 18.6987Z" fill="#161616" stroke="#161616" stroke-width="0.441235"/>
    <path d="M18.1534 19.1842L17.6443 18.8686L19.2094 18.6987L18.1534 19.1842ZM17.9725 19.4229L19.8867 19.2004L19.6217 20.1228L17.9725 19.4229Z" fill="#161616" stroke="#161616" stroke-width="0.441235"/>
    <path d="M19.6213 20.1228L17.5051 20.406L17.9721 19.4229L19.6213 20.1228ZM17.5051 20.406L17.0928 20.5638L17.3578 19.1154L17.5051 20.406ZM17.3578 19.1154L17.6439 18.8687L18.153 19.1842L17.3578 19.1154ZM19.7265 19.0022L19.8864 19.2004L17.9721 19.4229L19.7265 19.0022Z" fill="#161616" stroke="#161616" stroke-width="0.441235"/>
    <path d="M17.9722 19.4232L18.1531 19.1845L19.7266 19.0024L17.9722 19.4232ZM17.3579 19.1157L17.9722 19.4232L17.5052 20.4063L17.3579 19.1157Z" fill="#161616" stroke="#161616" stroke-width="0.441235"/>
    <path d="M18.1531 19.184L17.9722 19.4227L17.3579 19.1152L18.1531 19.184Z" fill="#161616" stroke="#161616" stroke-width="0.441235"/>
</svg>
