<svg width="19" height="18" viewBox="0 0 19 18" fill="none" xmlns="http://www.w3.org/2000/svg">
<g clip-path="url(#clip0_759:24299)">
<path d="M15.2937 6.57861H8.74466C7.94089 6.57861 7.28931 7.2302 7.28931 8.03396V14.583C7.28931 15.3868 7.94089 16.0384 8.74466 16.0384H15.2937C16.0975 16.0384 16.7491 15.3868 16.7491 14.583V8.03396C16.7491 7.2302 16.0975 6.57861 15.2937 6.57861Z" stroke="white" stroke-width="1.4" stroke-linecap="round" stroke-linejoin="round"/>
<path d="M4.37858 10.9446H3.65091C3.26492 10.9446 2.89475 10.7913 2.62182 10.5184C2.34889 10.2455 2.19556 9.87528 2.19556 9.48929V2.94021C2.19556 2.55423 2.34889 2.18406 2.62182 1.91113C2.89475 1.63819 3.26492 1.48486 3.65091 1.48486H10.2C10.586 1.48486 10.9561 1.63819 11.2291 1.91113C11.502 2.18406 11.6553 2.55423 11.6553 2.94021V3.66789" stroke="white" stroke-width="1.4" stroke-linecap="round" stroke-linejoin="round"/>
</g>
<defs>
<clipPath id="clip0_759:24299">
<rect width="17.4642" height="17.4642" fill="white" transform="translate(0.740234 0.029541)"/>
</clipPath>
</defs>
</svg>
