<svg width="20" height="20" viewBox="0 0 20 20" fill="none" xmlns="http://www.w3.org/2000/svg">
<path d="M4.1665 2.5V1.75C3.75229 1.75 3.4165 2.08579 3.4165 2.5H4.1665ZM15.8332 17.5V18.25C16.2474 18.25 16.5832 17.9142 16.5832 17.5H15.8332ZM4.1665 17.5H3.4165C3.4165 17.9142 3.75229 18.25 4.1665 18.25V17.5ZM11.6665 2.5L12.1968 1.96967C12.0562 1.82902 11.8654 1.75 11.6665 1.75V2.5ZM15.8332 6.66667H16.5832C16.5832 6.46775 16.5042 6.27699 16.3635 6.13634L15.8332 6.66667ZM6.6665 13.4167C6.25229 13.4167 5.9165 13.7525 5.9165 14.1667C5.9165 14.5809 6.25229 14.9167 6.6665 14.9167V13.4167ZM13.3332 14.9167C13.7474 14.9167 14.0832 14.5809 14.0832 14.1667C14.0832 13.7525 13.7474 13.4167 13.3332 13.4167V14.9167ZM6.6665 10.0833C6.25229 10.0833 5.9165 10.4191 5.9165 10.8333C5.9165 11.2475 6.25229 11.5833 6.6665 11.5833V10.0833ZM11.6665 11.5833C12.0807 11.5833 12.4165 11.2475 12.4165 10.8333C12.4165 10.4191 12.0807 10.0833 11.6665 10.0833V11.5833ZM15.8332 16.75H4.1665V18.25H15.8332V16.75ZM4.9165 17.5V2.5H3.4165V17.5H4.9165ZM4.1665 3.25H11.6665V1.75H4.1665V3.25ZM15.0832 6.66667V17.5H16.5832V6.66667H15.0832ZM11.1362 3.03033L15.3028 7.197L16.3635 6.13634L12.1968 1.96967L11.1362 3.03033ZM10.0832 2.5V5.83333H11.5832V2.5H10.0832ZM12.4998 8.25H15.8332V6.75H12.4998V8.25ZM10.0832 5.83333C10.0832 7.16802 11.1652 8.25 12.4998 8.25V6.75C11.9936 6.75 11.5832 6.33959 11.5832 5.83333H10.0832ZM6.6665 14.9167H13.3332V13.4167H6.6665V14.9167ZM6.6665 11.5833H11.6665V10.0833H6.6665V11.5833Z" fill="white"/>
</svg>
