<svg width="16" height="15" viewBox="0 0 16 15" fill="none" xmlns="http://www.w3.org/2000/svg">
<g clip-path="url(#clip0_189_2558)">
<path fill-rule="evenodd" clip-rule="evenodd" d="M7.62496 0.000251535C5.81297 -0.00159012 4.05956 0.641906 2.67893 1.81543C1.2983 2.98895 0.380696 4.61578 0.0905751 6.40439C-0.199546 8.193 0.156776 10.0265 1.09568 11.5762C2.03458 13.126 3.49469 14.2907 5.21435 14.8617C5.5935 14.932 5.73392 14.6932 5.73392 14.492C5.73392 14.2907 5.73392 13.832 5.73392 13.1954C3.61353 13.6635 3.16417 12.175 3.16417 12.175C3.02288 11.7137 2.72272 11.3173 2.31695 11.0563C1.62887 10.5882 2.37312 10.5882 2.37312 10.5882C2.61431 10.6223 2.8446 10.7108 3.04653 10.847C3.24846 10.9833 3.41674 11.1636 3.53863 11.3746C3.6422 11.5623 3.78183 11.7278 3.94951 11.8615C4.11719 11.9952 4.30963 12.0945 4.51577 12.1537C4.72191 12.2128 4.93769 12.2307 5.15075 12.2062C5.36381 12.1817 5.56994 12.1155 5.75732 12.0111C5.7867 11.6261 5.9527 11.2642 6.2254 10.9907C4.53095 10.7988 2.75226 10.1435 2.75226 7.2227C2.74062 6.46581 3.0205 5.73343 3.53395 5.1772C3.30481 4.51916 3.33154 3.79902 3.60884 3.15978C3.60884 3.15978 4.25011 2.95382 5.70583 3.94146C6.95587 3.59825 8.27531 3.59825 9.52535 3.94146C10.9811 2.95382 11.6177 3.15978 11.6177 3.15978C11.8979 3.79811 11.9263 4.51879 11.6972 5.1772C12.2107 5.73343 12.4906 6.46581 12.4789 7.2227C12.4789 10.1529 10.6955 10.7941 8.99642 10.9673C9.17862 11.1505 9.31931 11.3707 9.40895 11.6129C9.49859 11.8552 9.5351 12.1139 9.51599 12.3716C9.51599 13.392 9.51599 14.2158 9.51599 14.4639C9.51599 14.712 9.65174 14.9039 10.0402 14.8337C11.7545 14.2573 13.2083 13.0907 14.1422 11.5419C15.0762 9.99319 15.4296 8.16304 15.1395 6.37791C14.8494 4.59277 13.9346 2.96875 12.5582 1.79549C11.1819 0.622225 9.43351 -0.0239665 7.62496 -0.027832V0.000251535Z" fill="white"/>
</g>
<defs>
<clipPath id="clip0_189_2558">
<rect width="15.25" height="14.8709" fill="white"/>
</clipPath>
</defs>
</svg>
