<svg width="21" height="20" viewBox="0 0 21 20" fill="none" xmlns="http://www.w3.org/2000/svg">
<path d="M19.3315 9.95459C19.3315 14.9252 15.3021 18.9546 10.3315 18.9546M19.3315 9.95459C19.3315 4.98403 15.3021 0.95459 10.3315 0.95459M19.3315 9.95459H1.33154M10.3315 18.9546C5.36098 18.9546 1.33154 14.9252 1.33154 9.95459M10.3315 18.9546C10.3315 18.9546 14.3315 15.9546 14.3315 9.95459C14.3315 3.95459 10.3315 0.95459 10.3315 0.95459M10.3315 18.9546C10.3315 18.9546 6.33154 15.9546 6.33154 9.95459C6.33154 3.95459 10.3315 0.95459 10.3315 0.95459M1.33154 9.95459C1.33154 4.98403 5.36098 0.95459 10.3315 0.95459" stroke="white" stroke-width="1.5"/>
</svg>
