<svg width="92" height="22" viewBox="0 0 92 22" fill="none" xmlns="http://www.w3.org/2000/svg">
<path d="M0.584969 17V0.395109H4.8158V6.78685H11.1393V0.395109H15.3701V17H11.1393V10.4718H4.8158V17H0.584969ZM22.168 17.3184C20.8335 17.3184 19.7417 16.9697 18.8925 16.2721C18.0584 15.5594 17.6414 14.5737 17.6414 13.3151C17.6414 12.3749 17.8916 11.6167 18.392 11.0404C18.8925 10.449 19.5824 10.0168 20.462 9.74389C21.3415 9.47093 22.3499 9.33445 23.4872 9.33445H25.4662C25.451 8.75821 25.307 8.34119 25.034 8.0834C24.7762 7.81044 24.3516 7.67396 23.7602 7.67396C23.4721 7.67396 23.0475 7.68155 22.4864 7.69671C21.9253 7.71188 21.3339 7.73462 20.7122 7.76495C20.0904 7.79528 19.5218 7.82561 19.0062 7.85594V4.39848C19.3701 4.36815 19.8023 4.33782 20.3027 4.30749C20.8032 4.27717 21.3188 4.25442 21.8495 4.23925C22.3954 4.22409 22.8958 4.21651 23.3508 4.21651C25.2918 4.21651 26.7855 4.64111 27.8318 5.49031C28.8933 6.33951 29.4241 7.63605 29.4241 9.37995V17H26.1486V14.6799C25.8756 15.5291 25.4055 16.1811 24.7383 16.6361C24.0711 17.091 23.2143 17.3184 22.168 17.3184ZM23.4872 14.5434C24.018 14.5434 24.4653 14.3917 24.8293 14.0885C25.2084 13.77 25.4207 13.1938 25.4662 12.3597V11.4726H23.4872C22.9262 11.4726 22.494 11.6167 22.1907 11.9048C21.8874 12.1778 21.7358 12.5493 21.7358 13.0194C21.7358 13.4743 21.8874 13.8458 22.1907 14.134C22.494 14.4069 22.9262 14.5434 23.4872 14.5434ZM37.1717 17.4094C35.352 17.4094 33.919 17.0379 32.8726 16.2949C31.8263 15.5366 31.2652 14.4751 31.1894 13.1104H34.8288C34.8895 13.4895 35.1245 13.8155 35.534 14.0885C35.9434 14.3614 36.5196 14.4979 37.2627 14.4979C37.7934 14.4979 38.2484 14.4221 38.6275 14.2704C39.0218 14.1036 39.2189 13.8382 39.2189 13.4743C39.2189 13.1559 39.0672 12.8981 38.764 12.7009C38.4607 12.4886 37.9072 12.3446 37.1035 12.2687L36.2391 12.1778C34.6317 12.011 33.4489 11.5712 32.6907 10.8585C31.9324 10.1457 31.5533 9.25105 31.5533 8.17439C31.5533 7.24936 31.7808 6.49115 32.2357 5.89974C32.6907 5.29317 33.32 4.83824 34.1237 4.53496C34.9274 4.23167 35.8448 4.08003 36.876 4.08003C38.5592 4.08003 39.9164 4.45155 40.9476 5.1946C41.9788 5.92249 42.5247 6.97641 42.5854 8.35636H38.9459C38.8853 7.97725 38.6806 7.6588 38.3318 7.40101C37.983 7.12805 37.4826 6.99157 36.8305 6.99157C36.3604 6.99157 35.9737 7.07498 35.6704 7.24178C35.3823 7.40859 35.2383 7.64364 35.2383 7.94692C35.2383 8.26537 35.3747 8.50042 35.6477 8.65206C35.9358 8.8037 36.3907 8.91744 37.0125 8.99326L37.8768 9.08424C39.4843 9.25105 40.7202 9.6984 41.5845 10.4263C42.464 11.139 42.9038 12.0792 42.9038 13.2468C42.9038 14.5358 42.3882 15.5518 41.3571 16.2949C40.341 17.0379 38.9459 17.4094 37.1717 17.4094ZM44.9629 17V0.395109H49.1027V6.4684C49.7548 4.84583 50.9604 4.03454 52.7194 4.03454H52.9014C54.2662 4.03454 55.3049 4.52738 56.0177 5.51306C56.7455 6.49873 57.1095 7.94692 57.1095 9.85762V17H52.9696V9.6984C52.9696 9.12215 52.7952 8.65206 52.4465 8.28812C52.0977 7.90901 51.6352 7.71946 51.0589 7.71946C50.4827 7.71946 50.0126 7.90901 49.6487 8.28812C49.2847 8.65206 49.1027 9.13732 49.1027 9.74389V17H44.9629ZM67.1691 17.4549C65.5768 17.4549 64.2272 17.1592 63.1202 16.5678C62.0284 15.9764 61.1944 15.1424 60.6181 14.0657C60.0419 12.9739 59.7538 11.6849 59.7538 10.1988V0.395109H63.9846V10.2898C63.9846 11.2755 64.2575 12.0564 64.8035 12.6327C65.3645 13.2089 66.1531 13.4971 67.1691 13.4971C68.1851 13.4971 68.9661 13.2165 69.512 12.6554C70.0579 12.0792 70.3308 11.2906 70.3308 10.2898V0.395109H74.5617V10.1988C74.5617 12.428 73.9248 14.1946 72.651 15.4987C71.3923 16.8029 69.565 17.4549 67.1691 17.4549ZM77.4387 21.5493V4.44397H80.7142V7.65122C81.0782 6.49873 81.6847 5.6192 82.5339 5.01263C83.3831 4.3909 84.3991 4.08003 85.582 4.08003C86.7344 4.08003 87.7353 4.35299 88.5845 4.8989C89.4337 5.44482 90.0933 6.19545 90.5634 7.1508C91.0335 8.10615 91.2686 9.19798 91.2686 10.4263V10.9722C91.2686 12.2005 91.0487 13.2999 90.6089 14.2704C90.1843 15.2409 89.5474 16.0067 88.6982 16.5678C87.8642 17.1289 86.833 17.4094 85.6047 17.4094C84.7403 17.4094 83.9594 17.2578 83.2618 16.9545C82.5794 16.6512 82.0184 16.1887 81.5786 15.567V21.5493H77.4387ZM84.3537 13.9975C85.1725 13.9975 85.8398 13.6942 86.3553 13.0876C86.8709 12.4659 87.1287 11.6698 87.1287 10.6992C87.1287 9.72873 86.8709 8.95535 86.3553 8.3791C85.8549 7.7877 85.1877 7.49199 84.3537 7.49199C83.8532 7.49199 83.3831 7.60573 82.9434 7.83319C82.5188 8.06065 82.17 8.39427 81.897 8.83403C81.6241 9.2738 81.4876 9.80455 81.4876 10.4263V11.1997C81.4876 11.7911 81.6317 12.2991 81.9198 12.7237C82.2079 13.1331 82.5719 13.4516 83.0116 13.679C83.4514 13.8913 83.8987 13.9975 84.3537 13.9975Z" fill="white"/>
</svg>
