<svg width="12" height="11" viewBox="0 0 12 11" fill="none" xmlns="http://www.w3.org/2000/svg">
<path d="M8.38624 0.768799H3.67212C2.37035 0.768799 1.31506 1.82409 1.31506 3.12586V7.83998C1.31506 9.14174 2.37035 10.197 3.67212 10.197H8.38624C9.68801 10.197 10.7433 9.14174 10.7433 7.83998V3.12586C10.7433 1.82409 9.68801 0.768799 8.38624 0.768799Z" stroke="white" stroke-width="0.942823" stroke-linecap="round" stroke-linejoin="round"/>
<path d="M7.91472 5.18645C7.9729 5.57878 7.90588 5.97946 7.72321 6.33151C7.54054 6.68356 7.25151 6.96905 6.89724 7.14737C6.54296 7.32568 6.14148 7.38775 5.74989 7.32474C5.35831 7.26173 4.99657 7.07685 4.71611 6.7964C4.43566 6.51594 4.25078 6.1542 4.18777 5.76261C4.12476 5.37103 4.18682 4.96955 4.36514 4.61527C4.54346 4.261 4.82894 3.97197 5.18099 3.7893C5.53304 3.60663 5.93373 3.53961 6.32606 3.59779C6.72625 3.65713 7.09675 3.84361 7.38282 4.12969C7.66889 4.41576 7.85537 4.78626 7.91472 5.18645Z" stroke="white" stroke-width="0.942823" stroke-linecap="round" stroke-linejoin="round"/>
<path d="M8.62207 2.89062H8.62781" stroke="white" stroke-width="0.942823" stroke-linecap="round" stroke-linejoin="round"/>
</svg>
