<svg width="10" height="10" viewBox="0 0 10 10" fill="none" xmlns="http://www.w3.org/2000/svg">
<path d="M6.62608 2.96143C7.37623 2.96143 8.09567 3.25942 8.62611 3.78987C9.15655 4.32031 9.45455 5.03974 9.45455 5.7899V9.08978H7.5689V5.7899C7.5689 5.53984 7.46957 5.30003 7.29275 5.12322C7.11594 4.94641 6.87613 4.84707 6.62608 4.84707C6.37603 4.84707 6.13621 4.94641 5.9594 5.12322C5.78259 5.30003 5.68325 5.53984 5.68325 5.7899V9.08978H3.79761V5.7899C3.79761 5.03974 4.09561 4.32031 4.62605 3.78987C5.15649 3.25942 5.87592 2.96143 6.62608 2.96143Z" fill="white"/>
<path d="M1.91189 3.43286H0.0262451V9.0898H1.91189V3.43286Z" fill="white"/>
<path d="M0.968947 2.01919C1.48965 2.01919 1.91177 1.59708 1.91177 1.07637C1.91177 0.555661 1.48965 0.133545 0.968947 0.133545C0.448239 0.133545 0.026123 0.555661 0.026123 1.07637C0.026123 1.59708 0.448239 2.01919 0.968947 2.01919Z" fill="white"/>
</svg>
