<svg width="27" height="28" viewBox="0 0 27 28" fill="none" xmlns="http://www.w3.org/2000/svg">
<path d="M7.24286 22.6259L3.27754 21.5634L10.579 3.88949C10.7215 3.54473 11.0439 3.3079 11.4155 3.27517L14.969 2.96217C15.1182 2.94903 15.2284 3.09848 15.1717 3.2371L7.24286 22.6259Z" fill="white"/>
<path d="M16.491 24.0021C16.362 24.3159 16.0826 24.5428 15.7491 24.6048L11.9407 25.3132C11.7851 25.3421 11.6591 25.1874 11.719 25.0409L19.8492 5.14166L23.8139 6.20401L16.491 24.0021Z" fill="white"/>
<path d="M14.5693 20.417L15.6318 16.4517L21.6027 18.0516L19.9391 21.8558L14.5693 20.417Z" fill="white"/>
<path d="M5.16946 9.70741L6.77993 5.88954L11.3028 7.10144L10.2405 11.0662L5.16946 9.70741Z" fill="white"/>
<path d="M11.2537 11.4266L12.8772 7.61219L21.6446 9.87251L19.8832 13.6499L11.2537 11.4266Z" fill="white"/>
<path d="M21.4753 15.0583L23.4737 10.3628L24.5126 10.6412L24.3099 15.8178L21.4753 15.0583Z" fill="#FF3F3F"/>
<path d="M7.74664 18.5889L9.70205 14.8628L15.8987 16.5232L14.3023 20.3454L7.74664 18.5889Z" fill="white"/>
<path d="M2.87068 17.2819L3.14996 12.0952L5.72563 12.7854L3.74918 17.5173L2.87068 17.2819Z" fill="#FF3F3F"/>
<path d="M9.71338 10.9495L3.28263 21.5604L7.8518 10.4409L9.71338 10.9495Z" fill="url(#paint0_linear_791:3342)"/>
<path d="M17.4004 16.9082L23.7529 6.24856L19.2154 17.4102L17.4004 16.9082Z" fill="url(#paint1_linear_791:3342)"/>
<defs>
<linearGradient id="paint0_linear_791:3342" x1="8.21185" y1="11.328" x2="5.54355" y2="16.7566" gradientUnits="userSpaceOnUse">
<stop stop-color="#D8D8D8"/>
<stop offset="1" stop-color="white" stop-opacity="0"/>
</linearGradient>
<linearGradient id="paint1_linear_791:3342" x1="19.0318" y1="17.2403" x2="22.0518" y2="9.13409" gradientUnits="userSpaceOnUse">
<stop stop-color="#DFDFDF"/>
<stop offset="1" stop-color="white" stop-opacity="0"/>
</linearGradient>
</defs>
</svg>
