<svg width="14" height="23" viewBox="0 0 14 23" fill="none" xmlns="http://www.w3.org/2000/svg">
<path opacity="0.5" fill-rule="evenodd" clip-rule="evenodd" d="M12.0726 7.4975V15.5746C12.0726 18.624 9.60055 21.096 6.55115 21.096C3.50175 21.096 1.02972 18.624 1.02972 15.5746V7.49751C1.02972 4.44811 3.50175 1.97607 6.55115 1.97607C9.60055 1.97607 12.0726 4.4481 12.0726 7.4975ZM0.0297241 7.49751C0.0297241 3.89582 2.94947 0.976074 6.55115 0.976074C10.1528 0.976074 13.0726 3.89582 13.0726 7.4975V15.5746C13.0726 19.1763 10.1528 22.096 6.55115 22.096C2.94947 22.096 0.0297241 19.1763 0.0297241 15.5746V7.49751ZM7.18719 5.15216C7.18719 4.87602 6.96334 4.65216 6.68719 4.65216C6.41105 4.65216 6.18719 4.87602 6.18719 5.15216V8.60085C6.18719 8.877 6.41105 9.10085 6.68719 9.10085C6.96334 9.10085 7.18719 8.877 7.18719 8.60085V5.15216Z" fill="#9D9D9D"/>
</svg>
