<svg width="15" height="13" viewBox="0 0 15 13" fill="none" xmlns="http://www.w3.org/2000/svg">
    <path d="M10.5259 3.81954L4.83545 7.60942C4.6919 7.70497 4.53526 7.7783 4.37062 7.82703C4.03639 7.92565 3.68077 7.91927 3.35015 7.80872L0.809837 6.9587C0.708159 6.92464 0.623613 6.85133 0.574318 6.75447C0.527157 6.66116 0.516183 6.55318 0.543582 6.452L0.548072 6.43545C0.564593 6.37498 0.594293 6.31909 0.634955 6.27196C0.675616 6.22483 0.726186 6.18767 0.7829 6.16326L13.0953 0.873339C13.1355 0.855834 13.1771 0.841587 13.2196 0.830731L13.2741 0.816646C13.4015 0.78398 13.5344 0.781357 13.6629 0.808975C13.7914 0.836594 13.912 0.893726 14.0155 0.976026C14.1191 1.05833 14.2029 1.16363 14.2605 1.28392C14.3182 1.4042 14.3481 1.53631 14.3481 1.67019C14.3482 1.71404 14.345 1.75783 14.3385 1.80118L12.8822 11.6606C12.8611 11.8037 12.811 11.9408 12.7352 12.0631C12.6593 12.1855 12.5593 12.2904 12.4415 12.3712C12.2711 12.4883 12.07 12.5505 11.8644 12.5496C11.6588 12.5486 11.4582 12.4846 11.2888 12.3659L6.85637 9.25875C6.76869 9.19728 6.69671 9.11531 6.64643 9.01969C6.59615 8.92407 6.56902 8.81758 6.56732 8.70909C6.5659 8.61659 6.58299 8.52475 6.61755 8.43921C6.65211 8.35366 6.7034 8.2762 6.76831 8.21155L10.8236 4.17518C10.8613 4.13759 10.885 4.08779 10.8906 4.03433C10.8944 3.99983 10.8904 3.96491 10.8791 3.93216C10.8678 3.89942 10.8494 3.86969 10.8253 3.8452C10.8012 3.8207 10.772 3.80207 10.7398 3.79067C10.7076 3.77928 10.6734 3.77543 10.6396 3.77939H10.624C10.5887 3.78474 10.5551 3.79849 10.5259 3.81954Z" fill="white"/>
</svg>
