<svg width="21" height="17" viewBox="0 0 21 17" fill="none" xmlns="http://www.w3.org/2000/svg">
<path d="M5.35186 10.0384L0.95986 8.60376C0.95986 8.60376 0.426519 8.39043 0.602519 7.90776C0.637186 7.8091 0.709192 7.72377 0.917192 7.5771C1.89053 6.89977 18.9332 0.774429 18.9332 0.774429C19.1788 0.687918 19.443 0.668595 19.6985 0.71844C19.7688 0.740941 19.832 0.78125 19.882 0.835464C19.932 0.889679 19.9671 0.955924 19.9839 1.02775C20.0137 1.15437 20.0262 1.28445 20.0212 1.41444C20.0212 1.5291 20.0052 1.63309 19.9945 1.79842C19.8905 3.47309 16.7945 15.9718 16.7945 15.9718C16.7945 15.9718 16.6079 16.7024 15.9412 16.7264C15.7778 16.7323 15.6149 16.7051 15.4623 16.6464C15.3097 16.5878 15.1706 16.4989 15.0532 16.3851C13.7465 15.2598 9.22919 12.2251 8.23186 11.5584C8.20939 11.5427 8.19043 11.5226 8.1762 11.4991C8.16197 11.4757 8.15277 11.4496 8.14919 11.4224C8.13586 11.3531 8.21319 11.2651 8.21319 11.2651C8.21319 11.2651 16.0772 4.27575 16.2852 3.53175C16.3012 3.47575 16.2399 3.44643 16.1572 3.47043C15.6239 3.66243 6.58119 9.37977 5.58119 10.0118C5.50813 10.0395 5.42933 10.0487 5.35186 10.0384Z" fill="white"/>
</svg>
