<svg width="54" height="60" viewBox="0 0 54 60" fill="none" xmlns="http://www.w3.org/2000/svg">
<path d="M29.3071 21.0112V43.0112" stroke="#FF3F3F" stroke-width="2" stroke-linecap="round" stroke-linejoin="round"/>
<path d="M34.3071 25.0112H26.8071C25.8789 25.0112 24.9886 25.38 24.3323 26.0364C23.6759 26.6927 23.3071 27.583 23.3071 28.5112C23.3071 29.4395 23.6759 30.3297 24.3323 30.9861C24.9886 31.6425 25.8789 32.0112 26.8071 32.0112H31.8071C32.7354 32.0112 33.6256 32.38 34.282 33.0364C34.9384 33.6927 35.3071 34.583 35.3071 35.5112C35.3071 36.4395 34.9384 37.3297 34.282 37.9861C33.6256 38.6425 32.7354 39.0112 31.8071 39.0112H23.3071" stroke="#FF3F3F" stroke-width="2" stroke-linecap="round" stroke-linejoin="round"/>
<path d="M42.3071 1.01123V15.6779" stroke="white" stroke-width="2" stroke-linecap="round" stroke-linejoin="round"/>
<path d="M45.6405 3.67789H40.6405C40.0216 3.67789 39.4281 3.92372 38.9905 4.3613C38.553 4.79889 38.3071 5.39238 38.3071 6.01122C38.3071 6.63006 38.553 7.22355 38.9905 7.66114C39.4281 8.09872 40.0216 8.34455 40.6405 8.34455H43.9738C44.5926 8.34455 45.1861 8.59039 45.6237 9.02797C46.0613 9.46556 46.3071 10.059 46.3071 10.6779C46.3071 11.2967 46.0613 11.8902 45.6237 12.3278C45.1861 12.7654 44.5926 13.0112 43.9738 13.0112H38.3071" stroke="white" stroke-width="2" stroke-linecap="round" stroke-linejoin="round"/>
<path d="M48.3071 44.0112V58.6779" stroke="white" stroke-width="2" stroke-linecap="round" stroke-linejoin="round"/>
<path d="M51.6405 46.6779H46.6405C46.0216 46.6779 45.4281 46.9237 44.9905 47.3613C44.553 47.7989 44.3071 48.3924 44.3071 49.0112C44.3071 49.6301 44.553 50.2236 44.9905 50.6611C45.4281 51.0987 46.0216 51.3446 46.6405 51.3446H49.9738C50.5926 51.3446 51.1861 51.5904 51.6237 52.028C52.0613 52.4656 52.3071 53.059 52.3071 53.6779C52.3071 54.2967 52.0613 54.8902 51.6237 55.3278C51.1861 55.7654 50.5926 56.0112 49.9738 56.0112H44.3071" stroke="white" stroke-width="2" stroke-linecap="round" stroke-linejoin="round"/>
<path d="M5.30713 29.0112V43.6779" stroke="white" stroke-width="2" stroke-linecap="round" stroke-linejoin="round"/>
<path d="M8.64046 31.6779H3.64046C3.02162 31.6779 2.42813 31.9237 1.99055 32.3613C1.55296 32.7989 1.30713 33.3924 1.30713 34.0112C1.30713 34.6301 1.55296 35.2236 1.99055 35.6611C2.42813 36.0987 3.02162 36.3446 3.64046 36.3446H6.9738C7.59263 36.3446 8.18613 36.5904 8.62371 37.028C9.0613 37.4656 9.30713 38.059 9.30713 38.6779C9.30713 39.2967 9.0613 39.8902 8.62371 40.3278C8.18613 40.7654 7.59263 41.0112 6.9738 41.0112H1.30713" stroke="white" stroke-width="2" stroke-linecap="round" stroke-linejoin="round"/>
</svg>
