<svg width="13" height="14" viewBox="0 0 13 14" fill="none" xmlns="http://www.w3.org/2000/svg">
<path fill-rule="evenodd" clip-rule="evenodd" d="M6.5 0.5C2.91161 0.5 0 3.41161 0 7C0 10.5884 2.91161 13.5 6.5 13.5C10.0813 13.5 13 10.5884 13 7C13 3.41161 10.0813 0.5 6.5 0.5ZM10.7934 3.4962C11.5689 4.44088 12.0342 5.64643 12.0483 6.95065C11.865 6.9154 10.032 6.54176 8.18493 6.7744C8.14263 6.68276 8.10737 6.58405 8.06508 6.48536C7.95228 6.21746 7.82538 5.94251 7.69848 5.68167C9.74295 4.84979 10.6735 3.6513 10.7934 3.4962ZM6.5 1.45879C7.90998 1.45879 9.20011 1.98753 10.18 2.85466C10.0813 2.99566 9.2424 4.1166 7.26844 4.85683C6.359 3.18601 5.35086 1.81833 5.19577 1.60683C5.61171 1.50813 6.04881 1.45879 6.5 1.45879ZM4.13829 1.98048C4.28633 2.17787 5.27332 3.55261 6.19685 5.18818C3.60249 5.87906 1.31128 5.86497 1.06453 5.86497C1.42407 4.1448 2.58731 2.71367 4.13829 1.98048ZM0.944685 7.00705C0.944685 6.95065 0.944685 6.89426 0.944685 6.83785C1.18438 6.8449 3.87745 6.88015 6.64804 6.04827C6.81019 6.35846 6.95824 6.6757 7.09923 6.99295C7.02874 7.0141 6.95119 7.03526 6.88069 7.05639C4.01844 7.97994 2.49566 10.5038 2.36877 10.7153C1.48752 9.73536 0.944685 8.43113 0.944685 7.00705ZM6.5 12.5553C5.21693 12.5553 4.03253 12.1182 3.0949 11.385C3.19361 11.1806 4.32159 9.00921 7.45173 7.91649C7.46583 7.90944 7.47288 7.90944 7.48699 7.90238C8.26952 9.9257 8.58677 11.6247 8.67136 12.1112C8.00163 12.4002 7.26844 12.5553 6.5 12.5553ZM9.59491 11.6036C9.5385 11.2652 9.24242 9.64371 8.51627 7.6486C10.2576 7.37365 11.7804 7.82484 11.9707 7.88829C11.731 9.43221 10.8427 10.7646 9.59491 11.6036Z" fill="white"/>
</svg>
