<svg width="15" height="17" viewBox="0 0 15 17" fill="none" xmlns="http://www.w3.org/2000/svg">
<g clip-path="url(#clip0_845:34285)">
<path d="M13.5983 11.6587L12.7529 14.8001L11.0933 14.3012L13.5983 11.6587Z" fill="#E4761B" stroke="#E4761B" stroke-width="0.441235"/>
<path d="M11.0933 14.3012L12.694 11.891L13.5983 11.6587L11.0933 14.3012Z" fill="#E4761B" stroke="#E4761B" stroke-width="0.441235"/>
<path d="M12.3546 9.2899L13.5985 11.6583L12.6942 11.8906L12.3546 9.2899ZM12.3546 9.2899L13.155 8.68066L13.5985 11.6583L12.3546 9.2899Z" fill="#F6851B" stroke="#F6851B" stroke-width="0.441235"/>
<path d="M11.3359 7.50054L13.6366 6.46484L13.5222 7.03219L11.3359 7.50054ZM13.4495 7.71378L11.3359 7.50054L13.5222 7.03219L13.4495 7.71378Z" fill="#763D16" stroke="#763D16" stroke-width="0.441235"/>
<path d="M13.4495 7.71378L13.155 8.68094L11.3359 7.50054L13.4495 7.71378ZM13.9103 6.70473L13.5222 7.03219L13.6366 6.46484L13.9103 6.70473ZM13.4495 7.71378L13.5222 7.03219L13.8306 7.31397L13.4495 7.71378Z" fill="#763D16" stroke="#763D16" stroke-width="0.441235"/>
<path d="M9.30896 13.5356L9.88412 13.7375L11.0933 14.301L9.30896 13.5356Z" fill="#E2761B" stroke="#E2761B" stroke-width="0.441235"/>
<path d="M13.1551 8.68088L13.4496 7.71372L13.7025 7.92695L13.1551 8.68088ZM13.1551 8.68088L10.7678 7.81653L11.336 7.50049L13.1551 8.68088Z" fill="#763D16" stroke="#763D16" stroke-width="0.441235"/>
<path d="M11.9043 4.53467L11.336 7.50087L10.7678 7.81691L11.9043 4.53467Z" fill="#763D16" stroke="#763D16" stroke-width="0.441235"/>
<path d="M13.6366 6.46518L11.3359 7.50087L11.9042 4.53467L13.6366 6.46518Z" fill="#763D16" stroke="#763D16" stroke-width="0.441235"/>
<path d="M11.9041 4.53411L14.3052 4.22949L13.6365 6.46462L11.9041 4.53411Z" fill="#763D16" stroke="#763D16" stroke-width="0.441235"/>
<path d="M13.1551 8.68076L12.3547 9.28999L10.7678 7.81641L13.1551 8.68076Z" fill="#F6851B" stroke="#F6851B" stroke-width="0.441235"/>
<path d="M14.2012 2.09375L14.3052 4.22988L11.9041 4.53449L14.2012 2.09375Z" fill="#763D16" stroke="#763D16" stroke-width="0.441235"/>
<path d="M14.2011 2.09375L9.40233 5.92812L9.33997 3.32745L14.2011 2.09375Z" fill="#E2761B" stroke="#E2761B" stroke-width="0.441235"/>
<path d="M5.77136 3.01514L9.3401 3.32737L9.40246 5.92804L5.77136 3.01514Z" fill="#F6851B" stroke="#F6851B" stroke-width="0.441235"/>
<path d="M10.7678 7.81691L9.40271 5.92829L11.9043 4.53467L10.7678 7.81691Z" fill="#763D16" stroke="#763D16" stroke-width="0.441235"/>
<path d="M10.7673 7.81641L12.3542 9.28999L10.1263 9.56034L10.7673 7.81641Z" fill="#E4761B" stroke="#E4761B" stroke-width="0.441235"/>
<path d="M10.1269 9.56078L9.40271 5.92822L10.7678 7.81685L10.1269 9.56078Z" fill="#E4761B" stroke="#E4761B" stroke-width="0.441235"/>
<path d="M11.9043 4.53449L9.40271 5.92812L14.2014 2.09375L11.9043 4.53449Z" fill="#763D16" stroke="#763D16" stroke-width="0.441235"/>
<path d="M5.80252 14.2403L6.93551 15.5387L5.39368 13.9966L5.80252 14.2403Z" fill="#C0AD9E" stroke="#C0AD9E" stroke-width="0.441235"/>
<path d="M11.0933 14.3009L11.6303 12.0582L12.694 11.8906L11.0933 14.3009Z" fill="#CD6116" stroke="#CD6116" stroke-width="0.441235"/>
<path d="M1.2085 7.99166L3.16957 5.72607L1.46143 7.72132L1.2085 7.99166Z" fill="#E2761B" stroke="#E2761B" stroke-width="0.441235"/>
<path d="M12.694 11.8909L11.6303 12.0584L12.3545 9.29024L12.694 11.8909ZM9.40247 5.92803L7.49337 5.8595L5.77136 3.01514L9.40247 5.92803Z" fill="#F6851B" stroke="#F6851B" stroke-width="0.441235"/>
<path d="M12.3542 9.29004L11.6301 12.0582L11.5712 10.7065L12.3542 9.29004Z" fill="#E4751F" stroke="#E4751F" stroke-width="0.441235"/>
<path d="M10.1263 9.56039L12.3542 9.29004L11.5712 10.7065L10.1263 9.56039Z" fill="#CD6116" stroke="#CD6116" stroke-width="0.441235"/>
<path d="M7.49329 5.85986L9.40239 5.9284L10.1265 9.56096L7.49329 5.85986Z" fill="#F6851B" stroke="#F6851B" stroke-width="0.441235"/>
<path d="M7.49336 5.85953L2.34121 0.620117L5.77136 3.01517L7.49336 5.85953ZM5.76789 15.0361L1.29138 16.5592L0.397461 12.8086L5.76789 15.0361Z" fill="#E4761B" stroke="#E4761B" stroke-width="0.441235"/>
<path d="M1.87329 8.92808L3.56411 7.46973L4.98121 7.83146L1.87329 8.92808Z" fill="#763D16" stroke="#763D16" stroke-width="0.441235"/>
<path d="M4.98131 7.83174L3.56421 7.47001L4.323 4.02783L4.98131 7.83174Z" fill="#763D16" stroke="#763D16" stroke-width="0.441235"/>
<path d="M1.46094 7.72104L3.56407 7.46973L1.87325 8.92808L1.46094 7.72104Z" fill="#763D16" stroke="#763D16" stroke-width="0.441235"/>
<path d="M11.5712 10.7067L10.698 10.2231L10.1263 9.56055L11.5712 10.7067Z" fill="#CD6116" stroke="#CD6116" stroke-width="0.441235"/>
<path d="M1.46124 7.72128L1.31226 6.85693L3.56437 7.46997L1.46124 7.72128Z" fill="#763D16" stroke="#763D16" stroke-width="0.441235"/>
<path d="M10.5178 11.3117L10.698 10.2227L11.5711 10.7062L10.5178 11.3117Z" fill="#233447" stroke="#233447" stroke-width="0.441235"/>
<path d="M11.63 12.0588L10.5178 11.3125L11.5711 10.707L11.63 12.0588Z" fill="#F6851B" stroke="#F6851B" stroke-width="0.441235"/>
<path d="M3.56441 7.47001L1.3123 6.85696L1.12866 6.12969L3.56441 7.47001ZM4.3232 4.02783L3.56441 7.47001L1.12866 6.12969L4.3232 4.02783ZM4.3232 4.02783L7.49349 5.85934L4.98151 7.83174L4.3232 4.02783Z" fill="#763D16" stroke="#763D16" stroke-width="0.441235"/>
<path d="M4.98132 7.83226L7.4933 5.85986L8.61243 9.61807L4.98132 7.83226ZM8.61243 9.61807L5.1407 9.53811L4.98132 7.83226L8.61243 9.61807Z" fill="#E4761B" stroke="#E4761B" stroke-width="0.441235"/>
<path d="M1.87329 8.92888L4.98121 7.83226L5.14059 9.53811L1.87329 8.92888ZM10.1264 9.56096L8.61232 9.61807L7.49319 5.85986L10.1264 9.56096Z" fill="#F6851B" stroke="#F6851B" stroke-width="0.441235"/>
<path d="M10.698 10.2231L10.5179 11.3121L10.1263 9.56055L10.698 10.2231Z" fill="#CD6116" stroke="#CD6116" stroke-width="0.441235"/>
<path d="M2.34094 0.620117L7.49309 5.85953L4.3228 4.02802L2.34094 0.620117Z" fill="#763D16" stroke="#763D16" stroke-width="0.441235"/>
<path d="M0.397461 12.8088L4.74231 12.6108L5.76789 15.0364L0.397461 12.8088Z" fill="#E4761B" stroke="#E4761B" stroke-width="0.441235"/>
<path d="M5.76789 15.0358L4.74231 12.6103L6.87662 12.4961L5.76789 15.0358Z" fill="#CD6116" stroke="#CD6116" stroke-width="0.441235"/>
<path d="M10.5181 11.3119L11.6303 12.0582L12.2436 13.646L10.5181 11.3119ZM5.14077 9.53746L0.397461 12.8083L1.87346 8.92822L5.14077 9.53746ZM4.74231 12.6103L0.397461 12.8083L5.14077 9.53746L4.74231 12.6103ZM10.1266 9.5603L10.4107 10.695L9.03866 10.7826L10.1266 9.5603ZM9.03866 10.7826L8.61249 9.61742L10.1266 9.5603L9.03866 10.7826Z" fill="#F6851B" stroke="#F6851B" stroke-width="0.441235"/>
<path d="M6.93558 15.5383L5.76794 15.0356L9.82868 15.7858L6.93558 15.5383Z" fill="#C0AD9E" stroke="#C0AD9E" stroke-width="0.441235"/>
<path d="M1.87374 8.92823L1.2085 7.99154L1.46143 7.72119L1.87374 8.92823Z" fill="#763D16" stroke="#763D16" stroke-width="0.441235"/>
<path d="M10.2895 15.2298L9.82869 15.7858L5.76794 15.0356L10.2895 15.2298Z" fill="#D7C1B3" stroke="#D7C1B3" stroke-width="0.441235"/>
<path d="M10.5078 13.8669L5.76794 15.0358L6.87668 12.4961L10.5078 13.8669Z" fill="#E4761B" stroke="#E4761B" stroke-width="0.441235"/>
<path d="M5.76794 15.0362L10.5078 13.8672L10.2895 15.2304L5.76794 15.0362Z" fill="#D7C1B3" stroke="#D7C1B3" stroke-width="0.441235"/>
<path d="M1.12857 6.12979L0.972656 3.20166L4.32311 4.02793L1.12857 6.12979ZM1.46119 7.72141L1.00037 7.20737L1.31221 6.85706L1.46119 7.72141Z" fill="#763D16" stroke="#763D16" stroke-width="0.441235"/>
<path d="M7.8363 10.3721L8.61242 9.61816L8.50154 11.4611L7.8363 10.3721Z" fill="#CD6116" stroke="#CD6116" stroke-width="0.441235"/>
<path d="M8.61279 9.61816L7.83668 10.3721L6.70715 11.0156L8.61279 9.61816Z" fill="#CD6116" stroke="#CD6116" stroke-width="0.441235"/>
<path d="M12.2433 13.6461L12.0319 13.4748L10.5178 11.312L12.2433 13.6461Z" fill="#F6851B" stroke="#F6851B" stroke-width="0.441235"/>
<path d="M6.70671 11.0155L5.14062 9.53809L8.61235 9.61805L6.70671 11.0155Z" fill="#CD6116" stroke="#CD6116" stroke-width="0.441235"/>
<path d="M8.50171 11.4611L8.61258 9.61816L9.03875 10.7833L8.50171 11.4611Z" fill="#E4751F" stroke="#E4751F" stroke-width="0.441235"/>
<path d="M0.848022 6.41927L1.12867 6.12988L1.3123 6.85716L0.848022 6.41927Z" fill="#763D16" stroke="#763D16" stroke-width="0.441235"/>
<path d="M8.50192 11.4606L6.70715 11.0151L7.83668 10.3716L8.50192 11.4606Z" fill="#233447" stroke="#233447" stroke-width="0.441235"/>
<path d="M4.32311 4.02802L0.972656 3.20175L2.34125 0.620117L4.32311 4.02802Z" fill="#763D16" stroke="#763D16" stroke-width="0.441235"/>
<path d="M9.82877 15.7861L10.0193 16.3572L6.93567 15.5386L9.82877 15.7861Z" fill="#C0AD9E" stroke="#C0AD9E" stroke-width="0.441235"/>
<path d="M6.87693 12.4963L6.70715 11.0151L8.50192 11.4606L6.87693 12.4963Z" fill="#F6851B" stroke="#F6851B" stroke-width="0.441235"/>
<path d="M5.14062 9.53809L6.70671 11.0155L6.87649 12.4967L5.14062 9.53809Z" fill="#E4751F" stroke="#E4751F" stroke-width="0.441235"/>
<path d="M9.03866 10.7832L10.4107 10.6956L12.0322 13.4753L9.03866 10.7832ZM5.14076 9.53809L6.87662 12.4967L4.74231 12.6109L5.14076 9.53809Z" fill="#F6851B" stroke="#F6851B" stroke-width="0.441235"/>
<path d="M9.03875 10.7832L10.7434 13.6352L8.50171 11.461L9.03875 10.7832Z" fill="#E4751F" stroke="#E4751F" stroke-width="0.441235"/>
<path d="M8.50171 11.4604L10.7434 13.6347L10.5078 13.8669L8.50171 11.4604Z" fill="#F6851B" stroke="#F6851B" stroke-width="0.441235"/>
<path d="M10.5076 13.8674L6.87646 12.4967L8.50145 11.461L10.5076 13.8674ZM12.0321 13.4753L10.7432 13.6352L9.0385 10.7832L12.0321 13.4753Z" fill="#F6851B" stroke="#F6851B" stroke-width="0.441235"/>
<path d="M12.3719 14.8149L11.8175 16.0372L10.0193 16.3571L12.3719 14.8149ZM10.0193 16.3571L9.82874 15.7859L10.2896 15.23L10.0193 16.3571Z" fill="#C0AD9E" stroke="#C0AD9E" stroke-width="0.441235"/>
<path d="M10.2892 15.23L10.6287 15.0815L10.0189 16.3571L10.2892 15.23ZM10.0189 16.3571L10.6287 15.0815L12.3715 14.8149L10.0189 16.3571Z" fill="#C0AD9E" stroke="#C0AD9E" stroke-width="0.441235"/>
<path d="M12.0325 13.4751L12.4587 13.7607L11.1628 13.932L12.0325 13.4751Z" fill="#161616" stroke="#161616" stroke-width="0.441235"/>
<path d="M11.1626 13.932L10.7434 13.635L12.0323 13.4751L11.1626 13.932ZM11.0137 14.1567L12.5901 13.9473L12.3719 14.8154L11.0137 14.1567Z" fill="#161616" stroke="#161616" stroke-width="0.441235"/>
<path d="M12.3716 14.8152L10.6289 15.0817L11.0134 14.1564L12.3716 14.8152ZM10.6289 15.0817L10.2893 15.2302L10.5076 13.867L10.6289 15.0817ZM10.5076 13.867L10.7432 13.6348L11.1624 13.9318L10.5076 13.867ZM12.4583 13.7604L12.5899 13.947L11.0134 14.1564L12.4583 13.7604Z" fill="#161616" stroke="#161616" stroke-width="0.441235"/>
<path d="M11.0136 14.1567L11.1625 13.9321L12.4584 13.7607L11.0136 14.1567ZM10.5077 13.8674L11.0136 14.1567L10.629 15.082L10.5077 13.8674Z" fill="#161616" stroke="#161616" stroke-width="0.441235"/>
<path d="M11.1625 13.9319L11.0135 14.1566L10.5077 13.8672L11.1625 13.9319Z" fill="#161616" stroke="#161616" stroke-width="0.441235"/>
</g>
<defs>
<clipPath id="clip0_845:34285">
<rect width="14" height="16" fill="white" transform="translate(0.330566 0.582031)"/>
</clipPath>
</defs>
</svg>
