<svg width="60" height="60" viewBox="0 0 60 60" fill="none" xmlns="http://www.w3.org/2000/svg">
<path fill-rule="evenodd" clip-rule="evenodd" d="M48.6658 11.6H10.9455C10.7547 11.6 10.6 11.7547 10.6 11.9455V14.8637C10.6 15.0544 10.7547 15.2091 10.9455 15.2091H48.6658C48.8566 15.2091 49.0112 15.0544 49.0112 14.8637V11.9455C49.0112 11.7547 48.8566 11.6 48.6658 11.6ZM10.9455 10C9.87101 10 9 10.871 9 11.9455V14.8637C9 15.9381 9.87101 16.8091 10.9455 16.8091H48.6658C49.7402 16.8091 50.6112 15.9381 50.6112 14.8637V11.9455C50.6112 10.871 49.7402 10 48.6658 10H10.9455Z" fill="url(#paint0_linear_530_695)"/>
<path fill-rule="evenodd" clip-rule="evenodd" d="M48.6658 22.9484H10.9455C10.7547 22.9484 10.6 23.1031 10.6 23.2938V50.4222C10.6 50.613 10.7547 50.7677 10.9455 50.7677H48.6658C48.8566 50.7677 49.0112 50.613 49.0112 50.4222V23.2938C49.0112 23.1031 48.8566 22.9484 48.6658 22.9484ZM10.9455 21.3484C9.87101 21.3484 9 22.2194 9 23.2938V50.4222C9 51.4967 9.87101 52.3677 10.9455 52.3677H48.6658C49.7402 52.3677 50.6112 51.4967 50.6112 50.4222V23.2938C50.6112 22.2194 49.7402 21.3484 48.6658 21.3484H10.9455Z" fill="#FF3F3F"/>
<rect x="17.3223" y="26.6445" width="18.1576" height="1.51314" fill="white"/>
<rect x="38.5059" y="26.6445" width="3.78284" height="1.51314" fill="#FF3F3F"/>
<rect x="17.3223" y="32.697" width="18.1576" height="1.51314" fill="white"/>
<rect x="38.5059" y="32.697" width="3.78284" height="1.51314" fill="#FF3F3F"/>
<rect x="17.3223" y="38.7494" width="18.1576" height="1.51314" fill="white"/>
<rect x="38.5059" y="38.7494" width="3.78284" height="1.51314" fill="white"/>
<rect x="17.3223" y="44.8022" width="18.1576" height="1.51314" fill="white"/>
<rect x="38.5059" y="44.8022" width="3.78284" height="1.51314" fill="white"/>
<defs>
<linearGradient id="paint0_linear_530_695" x1="50.6112" y1="16.8091" x2="19.5446" y2="16.8091" gradientUnits="userSpaceOnUse">
<stop stop-color="#FF3F3F"/>
<stop offset="1" stop-color="#FF3F3F" stop-opacity="0.26"/>
</linearGradient>
</defs>
</svg>
