<svg width="60" height="60" viewBox="0 0 60 60" fill="none" xmlns="http://www.w3.org/2000/svg">
<path fill-rule="evenodd" clip-rule="evenodd" d="M8.47884 21.9962C7.85599 20.546 8.52666 18.8655 9.97683 18.2427L16.4892 15.4456C17.9394 14.8227 19.6199 15.4934 20.2427 16.9436L22.1091 21.289L20.6389 21.9204L18.7726 17.575C18.4985 16.9368 17.7588 16.6416 17.1206 16.9157L10.6083 19.7128C9.97002 19.9869 9.67486 20.7265 9.94898 21.3648L10.7757 23.2895L9.30554 23.921L8.47884 21.9962Z" fill="#323232"/>
<path fill-rule="evenodd" clip-rule="evenodd" d="M8.30176 26.1393C8.30176 23.0827 10.7797 20.6047 13.8364 20.6047H46.9786C50.0353 20.6047 52.5133 23.0827 52.5133 26.1393V45.0778C52.5133 48.1345 50.0353 50.6124 46.9786 50.6124H13.8364C10.7797 50.6124 8.30176 48.1345 8.30176 45.0778V26.1393ZM50.9133 41.9105V29.3067H35.1421C31.6617 29.3067 28.8402 32.1281 28.8402 35.6086C28.8402 39.089 31.6617 41.9105 35.1421 41.9105H50.9133ZM50.9133 27.7067H35.1421C30.778 27.7067 27.2402 31.2445 27.2402 35.6086C27.2402 39.9727 30.778 43.5105 35.1421 43.5105H50.9133V45.0778C50.9133 47.2508 49.1517 49.0124 46.9786 49.0124H13.8364C11.6633 49.0124 9.90176 47.2508 9.90176 45.0778V26.1393C9.90176 23.9663 11.6633 22.2047 13.8364 22.2047H46.9786C49.1517 22.2047 50.9133 23.9663 50.9133 26.1393V27.7067ZM35.1421 34.8086C35.5839 34.8086 35.9421 35.1668 35.9421 35.6086V35.6323C35.9421 36.0741 35.5839 36.4323 35.1421 36.4323C34.7003 36.4323 34.3421 36.0741 34.3421 35.6323V35.6086C34.3421 35.1668 34.7003 34.8086 35.1421 34.8086Z" fill="white"/>
<path fill-rule="evenodd" clip-rule="evenodd" d="M30.6712 11.9665L24.1588 14.7636C23.9266 14.8633 23.8192 15.1325 23.9189 15.3647L26.4002 21.1418C26.4999 21.3741 26.7691 21.4815 27.0014 21.3817L33.5137 18.5847C33.746 18.4849 33.8534 18.2158 33.7536 17.9835L31.2724 12.2064C31.1726 11.9741 30.9035 11.8667 30.6712 11.9665ZM23.5274 13.2934C22.4832 13.7419 22.0003 14.952 22.4488 15.9962L24.93 21.7733C25.3785 22.8174 26.5886 23.3004 27.6328 22.8519L34.1451 20.0548C35.1893 19.6063 35.6723 18.3963 35.2238 17.3521L32.7425 11.575C32.294 10.5308 31.084 10.0479 30.0398 10.4963L23.5274 13.2934Z" fill="#323232"/>
<path fill-rule="evenodd" clip-rule="evenodd" d="M43.9061 6.28216L37.3937 9.07923C37.1614 9.17898 37.054 9.44814 37.1538 9.6804L39.635 15.4575C39.7348 15.6898 40.004 15.7972 40.2362 15.6974L46.7486 12.9004C46.9808 12.8006 47.0883 12.5314 46.9885 12.2992L44.5072 6.52208C44.4075 6.28982 44.1383 6.1824 43.9061 6.28216ZM36.7623 7.60909C35.7181 8.05757 35.2352 9.26763 35.6836 10.3118L38.1649 16.0889C38.6134 17.1331 39.8234 17.616 40.8676 17.1676L47.38 14.3705C48.4242 13.922 48.9071 12.712 48.4586 11.6678L45.9774 5.89066C45.5289 4.84646 44.3188 4.36354 43.2746 4.81202L36.7623 7.60909Z" fill="#FF3F3F"/>
</svg>
