<svg width="56" height="20" viewBox="0 0 56 20" fill="none" xmlns="http://www.w3.org/2000/svg">
    <g clip-path="url(#clip0_609:13674)">
        <path d="M3.1948 14.3872C3.42946 15.0175 3.75434 15.5564 4.16951 16.0039C4.58467 16.4515 5.07652 16.794 5.64505 17.0315C6.21364 17.269 6.83184 17.3877 7.4997 17.3877C8.14952 17.3877 8.75867 17.2644 9.32726 17.0178C9.89585 16.7711 10.3922 16.424 10.8163 15.9765C11.2405 15.5289 11.5699 14.9946 11.8046 14.3735C12.0393 13.7523 12.1566 13.0582 12.1566 12.2909V0.453125H14.9994V19.6347H12.1836V17.8535C11.5519 18.5294 10.8073 19.0501 9.94995 19.4155C9.09254 19.7808 8.16755 19.9635 7.17481 19.9635C6.16398 19.9635 5.2209 19.7854 4.34546 19.4291C3.47008 19.0729 2.71193 18.566 2.07121 17.9083C1.43049 17.2506 0.925046 16.4607 0.555052 15.5381C0.184997 14.6155 0 13.588 0 12.4553V0.453125H2.84283V12.2909C2.84283 13.0582 2.96013 13.7569 3.1948 14.3872Z" fill="white"/>
        <path d="M19.8998 0.453125V7.44068C20.5315 6.8013 21.2626 6.29441 22.0929 5.91987C22.9231 5.54534 23.8257 5.35811 24.8003 5.35811C25.8112 5.35811 26.7587 5.54989 27.6432 5.93352C28.5276 6.31714 29.2946 6.8378 29.9445 7.49549C30.5943 8.15318 31.1087 8.92953 31.4878 9.82465C31.8668 10.7198 32.0563 11.6698 32.0563 12.6745C32.0563 13.6792 31.8668 14.6246 31.4878 15.5106C31.1087 16.3966 30.5943 17.1685 29.9445 17.8261C29.2946 18.4837 28.5276 19.0044 27.6432 19.388C26.7587 19.7717 25.8111 19.9634 24.8003 19.9634C23.8256 19.9634 22.9187 19.7762 22.0793 19.4017C21.24 19.0272 20.5045 18.5202 19.8727 17.8809V19.6346H17.1653V0.453125H19.8998ZM20.2111 14.5653C20.4548 15.1499 20.7933 15.6614 21.2265 16.0998C21.6597 16.5383 22.1651 16.8854 22.7426 17.1411C23.3203 17.3969 23.943 17.5248 24.6108 17.5248C25.2607 17.5248 25.8743 17.3969 26.4519 17.1411C27.0295 16.8854 27.5303 16.5383 27.9546 16.0998C28.3787 15.6614 28.7171 15.1499 28.9698 14.5653C29.2225 13.9807 29.3489 13.3505 29.3489 12.6745C29.3489 11.9986 29.2225 11.3638 28.9698 10.77C28.7171 10.1763 28.3787 9.66028 27.9546 9.22184C27.5303 8.78346 27.0295 8.44088 26.4519 8.19429C25.8742 7.94769 25.2606 7.8243 24.6108 7.8243C23.9611 7.8243 23.3474 7.94763 22.7698 8.19429C22.1922 8.44094 21.6868 8.78346 21.2536 9.22184C20.8204 9.66028 20.4774 10.1763 20.2247 10.77C19.9721 11.3638 19.8457 11.9986 19.8457 12.6745C19.8456 13.3505 19.9675 13.9807 20.2111 14.5653Z" fill="white"/>
        <path d="M33.5991 9.8521C33.96 8.97523 34.4565 8.20343 35.0882 7.53664C35.7198 6.86986 36.469 6.34465 37.3354 5.96103C38.2018 5.5774 39.1404 5.38562 40.1511 5.38562C41.1439 5.38562 42.0644 5.56831 42.9128 5.93362C43.7611 6.299 44.4921 6.80595 45.1058 7.45448C45.7195 8.10296 46.1979 8.87027 46.5407 9.75624C46.8837 10.6423 47.0552 11.6059 47.0552 12.6472V13.5515H35.8192C35.9095 14.1178 36.09 14.643 36.3607 15.1271C36.6315 15.6112 36.9699 16.0314 37.376 16.3876C37.7821 16.7438 38.2424 17.0225 38.7568 17.2233C39.2713 17.4243 39.8172 17.5248 40.3948 17.5248C42.0374 17.5248 43.3641 16.8397 44.3749 15.4696L46.3513 16.9493C45.6654 17.881 44.8171 18.6117 43.8063 19.1415C42.7955 19.6712 41.6584 19.9361 40.3949 19.9361C39.366 19.9361 38.4049 19.7534 37.5115 19.3881C36.618 19.0227 35.8419 18.5112 35.183 17.8535C34.5242 17.1958 34.0053 16.424 33.6263 15.538C33.2472 14.6521 33.0577 13.6884 33.0577 12.6471C33.0576 11.6607 33.2381 10.729 33.5991 9.8521ZM37.4031 8.76968C36.6359 9.41821 36.1261 10.2814 35.8734 11.3592H44.2936C44.059 10.2814 43.5581 9.41821 42.7909 8.76968C42.0238 8.12121 41.1258 7.79694 40.097 7.79694C39.0682 7.79694 38.1702 8.12121 37.4031 8.76968Z" fill="white"/>
        <path d="M52.1726 9.08478C51.5951 9.72416 51.3062 10.5919 51.3062 11.688V19.6347H48.5717V5.65955H51.2791V7.3859C51.6221 6.81959 52.0688 6.37199 52.6193 6.04318C53.1698 5.7143 53.8241 5.54987 54.5823 5.54987H55.5299V8.12569H54.3927C53.4903 8.12575 52.7502 8.4454 52.1726 9.08478Z" fill="white"/>
    </g>
    <defs>
        <clipPath id="clip0_609:13674">
            <rect width="55.5295" height="19.5104" fill="white" transform="translate(0 0.453125)"/>
        </clipPath>
    </defs>
</svg>
