<svg width="173" height="164" viewBox="0 0 173 164" fill="none" xmlns="http://www.w3.org/2000/svg">
<g clip-path="url(#clip0_425_626)">
<path d="M161.754 126.077C163.28 121.748 162.178 117.078 162.941 112.635C163.704 108.192 166.543 104.527 168.988 100.791C172.011 96.1641 174.78 89.5843 171.587 84.66C164.606 89.6655 155.931 91.7003 147.456 90.3201C138.626 88.7777 131.138 83.4573 125.232 76.8633C119.327 70.2693 115.272 62.1755 110.596 54.492C108.571 51.0246 106.026 47.8892 103.051 45.1953C99.8017 42.3653 58.7592 37.3986 58.731 37.4835C52.9667 56.1334 46.5948 75.1511 36.5214 91.8625C18.3949 118.974 4.36561 118.153 0.0141201 118.606C-0.113034 124.648 8.30739 125.271 10.5255 128.978C11.9383 131.355 8.23673 134.836 8.94314 138.289C10.0875 143.822 25.1906 141.317 25.1906 141.317C25.1906 141.317 27.4935 148.902 31.294 149.807C36.8746 151.052 41.9608 147.062 46.4536 144.402C52.6982 140.709 60.1721 138.077 67.3774 140.412C70.836 141.609 73.7919 143.936 75.7696 147.02C77.0835 148.831 78.5953 150.67 80.8699 151.067C82.2827 151.307 84.1052 150.501 85.7865 147.84C87.1993 145.52 88.8523 144.119 91.6215 144.161C94.9981 144.161 98.0216 146.199 101.073 147.388C103.962 148.482 106.976 149.209 110.045 149.553C115.329 150.147 125.162 149.001 131.237 145.633C135.348 143.369 136.676 138.077 143.359 135.544C150.338 132.884 158.038 136.733 161.754 126.077Z" fill="#FF3F3F"/>
<path d="M106.4 148.463C106.4 143.199 105.382 128.653 102.981 121.917C101.568 117.885 99.5474 115.451 98.7421 112.352C97.8611 107.968 97.3319 103.52 97.1598 99.0507C96.5946 93.3907 95.1818 88.141 91.9041 78.618C92.4894 78.5424 93.0493 78.3318 93.5396 78.0028C94.0299 77.6737 94.4373 77.2353 94.7297 76.7218C96.1425 74.571 96.5099 69.9722 98.403 68.2318C101.229 65.6564 105.382 64.3405 107.233 62.1755C110.469 58.3974 112.291 58.0012 111.698 55.6806C110.506 51.1651 108.912 46.7657 106.936 42.5351C105.17 39.4645 99.2931 32.7432 98.6997 31.0452C98.19 29.6677 97.2445 28.4949 96.0074 27.7055C94.7703 26.9161 93.3095 26.5535 91.8476 26.6728C89.3713 26.4899 86.9371 25.9317 84.628 25.0173C82.9044 24.2249 81.4492 24.2248 81.3079 22.1872C81.3079 21.409 81.2373 20.6449 81.2373 19.9798C81.465 19.7344 81.6641 19.4638 81.8307 19.1733C82.491 18.0464 83.0489 16.8625 83.4978 15.6357C83.7029 15.7233 83.9326 15.7343 84.1451 15.6668C84.3576 15.5993 84.539 15.4577 84.6563 15.2678C85.1084 14.433 86.2952 12.6076 85.5605 11.6029C85.4765 11.4571 85.3547 11.3367 85.2079 11.2545C85.0612 11.1723 84.895 11.1313 84.7269 11.136C85.0754 9.36985 85.1375 7.55899 84.9106 5.77308C85.3018 5.7754 85.6879 5.68417 86.0369 5.50697C86.3858 5.32977 86.6875 5.07173 86.9168 4.75428C86.3581 4.77222 85.7992 4.72952 85.2497 4.62692C85.834 4.39514 86.4007 4.12083 86.9451 3.80622C84.7245 3.30477 82.6133 2.40339 80.7145 1.14599C77.1825 -1.08973 71.4888 0.848839 70.7259 1.30164C70.2208 1.6508 69.832 2.14373 69.6097 2.71666C69.3124 2.41049 68.9692 2.15268 68.5925 1.95255C69.0136 3.72688 69.1988 5.54913 69.1435 7.37205V11.1218C68.9411 11.0474 68.7189 11.0479 68.5168 11.1231C68.3148 11.1984 68.1462 11.3434 68.0415 11.5322C67.3068 12.5368 68.5077 14.3622 68.9599 15.1971C69.0771 15.387 69.2585 15.5285 69.471 15.596C69.6836 15.6635 69.9132 15.6525 70.1184 15.565C70.558 16.7953 71.1065 17.984 71.7572 19.1167C71.7572 19.9091 71.7572 21.0269 71.7572 22.1589C71.6159 24.2532 70.1607 24.2532 68.423 24.989C66.1164 25.9114 63.6809 26.4698 61.2035 26.6445C59.6577 26.5668 58.1293 26.9996 56.853 27.8764C55.5768 28.7533 54.6234 30.0257 54.1393 31.498C53.4471 33.1677 47.8523 39.4362 46.0721 42.5068C44.0758 46.7335 42.4679 51.1335 41.2685 55.6523C40.6752 57.9729 42.4836 58.3691 45.7189 62.1472C47.5697 64.3122 51.7941 65.6281 54.5632 68.2035C56.4564 69.9722 56.852 74.571 58.2224 76.6935C58.5165 77.2056 58.9244 77.6429 59.4144 77.9717C59.9044 78.3005 60.4634 78.512 61.048 78.5897C57.7703 88.1127 56.3716 93.3765 55.8065 99.0224C55.6287 103.492 55.0949 107.939 54.21 112.324C53.4471 115.422 51.455 117.856 49.9715 121.889C47.5556 128.681 46.5525 143.114 46.5384 148.435C46.4182 151.684 45.2314 154.802 43.1617 157.307C41.7489 159.514 43.0628 161.17 44.292 162.132C46.2275 163.66 47.9229 164.962 50.9464 162.825C53.9698 160.689 52.3592 155.991 52.3592 155.114C52.444 153.274 51.8647 150.869 52.6841 149.156C53.9839 146.326 60.6525 134.327 62.5739 123.842C63.69 117.757 64.5518 113.668 65.6256 111.814C69.7333 104.237 73.3344 96.3943 76.4054 88.3391C79.4764 96.3943 83.0776 104.237 87.1852 111.814C88.2731 113.668 89.1208 117.757 90.2369 123.842C92.1584 134.327 98.8128 146.397 100.127 149.156C100.96 150.911 100.367 153.274 100.466 155.114C100.466 155.991 98.8975 160.618 101.879 162.825C104.86 165.033 106.583 163.66 108.519 162.132C109.748 161.17 111.118 159.514 109.649 157.307C107.636 154.79 106.496 151.686 106.4 148.463ZM88.8241 55.7796C90.8149 52.1844 92.2894 48.3259 93.2039 44.318C94.4449 45.5817 95.5923 46.9343 96.637 48.365C99.2366 52.1714 100.197 52.4685 101.977 54.874C101.977 54.874 96.8631 58.737 95.1253 61.4538C93.218 64.4254 92.1019 65.8404 90.8868 67.3828C90.2282 68.3329 89.6962 69.3652 89.3045 70.4533C88.8806 69.0383 88.4992 67.6233 88.1884 66.463C88.3862 63.35 87.1005 58.737 88.8241 55.7796ZM57.8975 61.4397C56.1456 58.7229 51.0311 54.8599 51.0311 54.8599C52.8254 52.4544 53.8568 52.1572 56.3857 48.3508C57.4258 46.9164 58.5735 45.5635 59.8189 44.3039C60.1835 48.8026 61.4982 53.1724 63.6759 57.1239C65.2582 60.1096 64.3682 62.784 64.5518 65.8828H64.9616C64.6084 67.2979 64.1986 68.7129 63.7042 70.4392C63.2985 69.3491 62.7523 68.3168 62.0794 67.3686C60.9068 65.8121 59.7906 64.3971 57.8975 61.4538V61.4397Z" fill="white"/>
<path d="M82.6218 23.8145C82.2545 24.6635 81.986 28.4133 84.8258 29.3755C85.9484 29.6487 87.1325 29.4909 88.1446 28.933C89.1567 28.375 89.9233 27.4576 90.2934 26.3615C90.5053 25.5549 88.4002 25.3285 86.3516 24.4937C84.5432 23.7579 82.862 23.2768 82.6218 23.8145Z" fill="#FF3F3F"/>
<path d="M71.1497 23.8145C71.517 24.6635 71.7996 28.4133 68.9457 29.3755C67.8231 29.6487 66.639 29.4909 65.6269 28.933C64.6148 28.375 63.8482 27.4576 63.4781 26.3615C63.2662 25.5549 65.3713 25.3285 67.4199 24.4937C69.2283 23.7579 70.9378 23.2768 71.1497 23.8145Z" fill="#FF3F3F"/>
<path d="M71.2869 52.2688L68.0248 51.4556L73.9222 38.1745C74.1061 37.7604 74.5084 37.4759 74.9627 37.4386L77.5214 37.229C77.7006 37.2143 77.8269 37.3896 77.755 37.5532L71.2869 52.2688Z" fill="#21242B"/>
<path d="M78.9937 53.0974C78.8262 53.4763 78.4743 53.7497 78.0627 53.8209L75.2845 54.3017C75.0972 54.3341 74.953 54.1529 75.0288 53.9803L81.6573 38.8863L84.9188 39.6994L78.9937 53.0974Z" fill="#21242B"/>
<path d="M77.3139 50.5788L78.1879 47.5439L83.0999 48.7685L81.7313 51.6801L77.3139 50.5788Z" fill="#21242B"/>
<path d="M69.5812 42.3821L70.906 39.4601L74.6267 40.3876L73.7528 43.422L69.5812 42.3821Z" fill="#21242B"/>
<path d="M74.5863 43.6975L75.9218 40.7782L83.1342 42.5081L81.6852 45.3992L74.5863 43.6975Z" fill="#21242B"/>
<path d="M71.7013 49.1784L73.3099 46.3267L78.4075 47.5975L77.0942 50.5229L71.7013 49.1784Z" fill="#21242B"/>
<mask id="mask0_425_626" style="mask-type:alpha" maskUnits="userSpaceOnUse" x="67" y="37" width="19" height="18">
<path fill-rule="evenodd" clip-rule="evenodd" d="M68.0248 51.4547L71.2869 52.2679L72.5518 49.3901L76.6013 50.3996L75.0288 53.9806C74.953 54.1531 75.0972 54.3343 75.2845 54.3019L78.0627 53.8211C78.4743 53.7499 78.8262 53.4765 78.9937 53.0977L79.8312 51.204L81.7313 51.6777L83.0999 48.7661L81.1268 48.2742L81.127 48.2738L81.1359 48.2761L81.9577 46.3954L84.9188 39.6996L81.6573 38.8865L80.3595 41.8417L76.2979 40.8675L77.755 37.5524C77.8269 37.3888 77.7006 37.2134 77.5214 37.2281L74.9627 37.4378C74.5084 37.475 74.1061 37.7595 73.9222 38.1736L73.108 40.0073L70.906 39.4584L69.5812 42.3804L71.8078 42.9354L71.8034 42.9452L71.7877 42.9412L68.5383 50.2983L68.0248 51.4547ZM77.8888 47.4678L73.8403 46.4586L75.0097 43.7981L79.0727 44.772L77.8888 47.4678ZM84.639 42.8819L82.995 46.4756L85.3268 47.0569L85.4936 43.0949L84.639 42.8819ZM67.9199 44.2081L67.6902 48.1778L68.4129 48.358L70.0388 44.7363L67.9199 44.2081Z" fill="url(#paint0_linear_425_626)"/>
</mask>
<g mask="url(#mask0_425_626)">
<g filter="url(#filter0_f_425_626)">
<circle cx="81.0569" cy="42.2355" r="4.47867" fill="#C4C4C4"/>
</g>
</g>
<path d="M82.995 46.4766L84.639 42.8829L85.4937 43.0959L85.3268 47.0579L82.995 46.4766Z" fill="#FF3F3F"/>
<path d="M67.6902 48.1787L67.92 44.209L70.0388 44.7372L68.4129 48.3588L67.6902 48.1787Z" fill="#FF3F3F"/>
<path d="M73.3192 43.3321L68.029 51.4533L71.7878 42.9428L73.3192 43.3321Z" fill="url(#paint1_linear_425_626)"/>
<path d="M79.6428 47.8919L84.8686 39.7334L81.1359 48.2761L79.6428 47.8919Z" fill="url(#paint2_linear_425_626)"/>
</g>
<defs>
<filter id="filter0_f_425_626" x="65.8666" y="27.0451" width="30.3807" height="30.3804" filterUnits="userSpaceOnUse" color-interpolation-filters="sRGB">
<feFlood flood-opacity="0" result="BackgroundImageFix"/>
<feBlend mode="normal" in="SourceGraphic" in2="BackgroundImageFix" result="shape"/>
<feGaussianBlur stdDeviation="5.35585" result="effect1_foregroundBlur_425_626"/>
</filter>
<linearGradient id="paint0_linear_425_626" x1="80.7418" y1="48.1413" x2="83.062" y2="40.2924" gradientUnits="userSpaceOnUse">
<stop stop-color="#282A31"/>
<stop offset="1" stop-color="#5A5C61"/>
</linearGradient>
<linearGradient id="paint1_linear_425_626" x1="68.029" y1="51.26" x2="71.2147" y2="42.9092" gradientUnits="userSpaceOnUse">
<stop stop-color="#5A5C61"/>
<stop offset="1" stop-color="#282A31"/>
</linearGradient>
<linearGradient id="paint2_linear_425_626" x1="80.7419" y1="48.1413" x2="83.0621" y2="40.2925" gradientUnits="userSpaceOnUse">
<stop stop-color="#5A5C61"/>
<stop offset="1" stop-color="#282A31"/>
</linearGradient>
<clipPath id="clip0_425_626">
<rect width="173" height="164" fill="white"/>
</clipPath>
</defs>
</svg>
